<svg width="35" height="42" viewBox="0 0 35 42" fill="none" xmlns="http://www.w3.org/2000/svg">
<path d="M0.00817871 16.9738V27.2271L11.9931 34.1469V23.8932L0.00817871 16.9738Z" fill="#B28B62"/>
<path d="M11.9932 23.8932V34.1469L22.7359 27.9443V17.691L11.9932 23.8932Z" fill="#CDAC89"/>
<path d="M10.8834 10.695L0.00817871 16.9738L11.9931 23.8932L22.7359 17.6909L10.8834 10.695Z" fill="#DAB996"/>
<path d="M3.48739 28.4689L3.23701 28.324V26.8401L3.48739 26.985V28.4689ZM3.13545 28.2654L3.10654 28.2486V26.7647L3.13545 26.7815V28.2654ZM3.03389 28.2068L2.96474 28.167V26.683L3.03389 26.7229V28.2068ZM2.9128 28.1369L2.84365 28.0971V26.6131L2.9128 26.653V28.1369ZM2.78701 28.0643L2.58858 27.9498V26.4658L2.78701 26.5803V28.0643ZM2.54015 27.9217L2.51085 27.9049V26.4209L2.54015 26.4377V27.9217ZM2.45851 27.8744L2.38937 27.8346V26.351L2.45851 26.3909V27.8744ZM2.34991 27.8119L2.09953 27.6674V26.1834L2.34991 26.3284V27.8119ZM2.06555 27.6479L1.9968 27.608V26.1241L2.06555 26.1639V27.6479ZM1.96281 27.5885L1.79446 27.4912V26.0073L1.96281 26.1045V27.5885ZM1.74133 27.4608L1.71243 27.444V25.96L1.74133 25.9768V27.4608ZM1.65969 27.4135L1.59095 27.3736V25.8897L1.65969 25.9295V27.4135ZM1.54719 27.3486L1.47845 27.3088V25.8248L1.54719 25.8647V27.3486ZM1.44173 27.2877L1.37298 27.2479V25.7639L1.44173 25.8038V27.2877ZM1.31908 27.2166L1.15072 27.1197V25.6358L1.31908 25.7331V27.2166ZM0.975335 27.0182L0.724943 26.8737V25.3897L0.975335 25.5346V27.0182ZM0.627686 25.2295V26.9217L3.58466 28.6291V26.9369L0.627686 25.2295Z" fill="white"/>
<path d="M0.724976 26.8737L0.975367 27.0182V25.5346L0.724976 25.3897V26.8737Z" fill="#666666"/>
<path d="M2.09961 27.6674L2.34999 27.8119V26.3283L2.09961 26.1834V27.6674Z" fill="#666666"/>
<path d="M3.23706 28.324L3.48744 28.4689V26.9849L3.23706 26.84V28.324Z" fill="#666666"/>
<path d="M1.15076 27.1197L1.31912 27.2166V25.733L1.15076 25.6358V27.1197Z" fill="#666666"/>
<path d="M1.79443 27.4911L1.96279 27.5884V26.1045L1.79443 26.0072V27.4911Z" fill="#666666"/>
<path d="M2.58862 27.9498L2.78705 28.0643V26.5803L2.58862 26.4659V27.9498Z" fill="#666666"/>
<path d="M1.37305 27.2478L1.44179 27.2876V25.8037L1.37305 25.7638V27.2478Z" fill="#666666"/>
<path d="M1.47839 27.3088L1.54714 27.3486V25.8647L1.47839 25.8248V27.3088Z" fill="#666666"/>
<path d="M1.99683 27.608L2.06557 27.6479V26.1639L1.99683 26.1241V27.608Z" fill="#666666"/>
<path d="M1.59094 27.3736L1.65969 27.4134V25.9295L1.59094 25.8896V27.3736Z" fill="#666666"/>
<path d="M2.84363 28.097L2.91277 28.1368V26.6529L2.84363 26.613V28.097Z" fill="#666666"/>
<path d="M2.96484 28.167L3.03399 28.2068V26.7229L2.96484 26.683V28.167Z" fill="#666666"/>
<path d="M1.71252 27.4439L1.74143 27.4607V25.9767L1.71252 25.9599V27.4439Z" fill="#666666"/>
<path d="M3.10645 28.2486L3.13535 28.2654V26.7815L3.10645 26.7647V28.2486Z" fill="#666666"/>
<path d="M2.51099 27.9049L2.54028 27.9217V26.4377L2.51099 26.4209V27.9049Z" fill="#666666"/>
<path d="M2.3894 27.8345L2.45854 27.8744V26.3908L2.3894 26.351V27.8345Z" fill="#666666"/>
<path d="M0 7.02682V17.2801L11.9849 24.1999V13.9462L0 7.02682Z" fill="#B28B62"/>
<path d="M11.985 13.9462V24.1999L22.7277 17.9973V7.74401L11.985 13.9462Z" fill="#CDAC89"/>
<path d="M10.8752 0.748028L0 7.0268L11.9849 13.9462L22.7277 7.74398L10.8752 0.748028Z" fill="#DAB996"/>
<path d="M3.47921 18.522L3.22883 18.3771V16.8931L3.47921 17.038V18.522ZM3.12727 18.3185L3.09836 18.3017V16.8177L3.12727 16.8345V18.3185ZM3.02571 18.2599L2.95657 18.22V16.7361L3.02571 16.7759V18.2599ZM2.90462 18.19L2.83547 18.1501V16.6662L2.90462 16.706V18.19ZM2.77883 18.1173L2.58041 18.0028V16.5189L2.77883 16.6333V18.1173ZM2.53197 17.9747L2.50267 17.9579V16.474L2.53197 16.4908V17.9747ZM2.45033 17.9275L2.38119 17.8876V16.4041L2.45033 16.4439V17.9275ZM2.34173 17.865L2.09135 17.7204V16.2365L2.34173 16.3814V17.865ZM2.05737 17.7009L1.98862 17.6611V16.1771L2.05737 16.2169V17.7009ZM1.95463 17.6415L1.78628 17.5443V16.0603L1.95463 16.1576V17.6415ZM1.73316 17.5138L1.70425 17.497V16.013L1.73316 16.0298V17.5138ZM1.65151 17.4665L1.58277 17.4267V15.9427L1.65151 15.9826V17.4665ZM1.53901 17.4017L1.47027 17.3618V15.8779L1.53901 15.9177V17.4017ZM1.43355 17.3407L1.3648 17.3009V15.817L1.43355 15.8568V17.3407ZM1.3109 17.2697L1.14254 17.1728V15.6888L1.3109 15.7861V17.2697ZM0.967156 17.0712L0.716764 16.9267V15.4427L0.967156 15.5877V17.0712ZM0.619507 15.2826V16.9747L3.57648 18.6821V16.99L0.619507 15.2826Z" fill="white"/>
<path d="M0.716797 16.9267L0.967189 17.0712V15.5877L0.716797 15.4427V16.9267Z" fill="#666666"/>
<path d="M2.09143 17.7204L2.34181 17.8649V16.3813L2.09143 16.2364V17.7204Z" fill="#666666"/>
<path d="M3.22888 18.377L3.47927 18.5219V17.038L3.22888 16.8931V18.377Z" fill="#666666"/>
<path d="M1.14258 17.1727L1.31094 17.2696V15.7861L1.14258 15.6888V17.1727Z" fill="#666666"/>
<path d="M1.78625 17.5442L1.95461 17.6414V16.1575L1.78625 16.0602V17.5442Z" fill="#666666"/>
<path d="M2.58044 18.0029L2.77887 18.1173V16.6334L2.58044 16.5189V18.0029Z" fill="#666666"/>
<path d="M1.36487 17.3008L1.43362 17.3407V15.8567L1.36487 15.8169V17.3008Z" fill="#666666"/>
<path d="M1.47021 17.3618L1.53896 17.4016V15.9177L1.47021 15.8778V17.3618Z" fill="#666666"/>
<path d="M1.98865 17.661L2.05739 17.7009V16.2169L1.98865 16.1771V17.661Z" fill="#666666"/>
<path d="M1.58289 17.4266L1.65163 17.4665V15.9825L1.58289 15.9427V17.4266Z" fill="#666666"/>
<path d="M2.83545 18.15L2.90459 18.1899V16.7059L2.83545 16.6661V18.15Z" fill="#666666"/>
<path d="M2.95667 18.22L3.02581 18.2598V16.7759L2.95667 16.736V18.22Z" fill="#666666"/>
<path d="M1.70435 17.4969L1.73325 17.5137V16.0298L1.70435 16.013V17.4969Z" fill="#666666"/>
<path d="M3.09827 18.3017L3.12717 18.3185V16.8345L3.09827 16.8177V18.3017Z" fill="#666666"/>
<path d="M2.50281 17.9579L2.5321 17.9747V16.4907L2.50281 16.4739V17.9579Z" fill="#666666"/>
<path d="M2.38123 17.8876L2.45036 17.9274V16.4438L2.38123 16.404V17.8876Z" fill="#666666"/>
<path d="M12.0867 24.0788V34.3321L24.0716 41.2519V30.9982L12.0867 24.0788Z" fill="#B28B62"/>
<path d="M24.0715 30.9982V41.2519L34.8143 35.0493V24.796L24.0715 30.9982Z" fill="#CDAC89"/>
<path d="M22.9618 17.8L12.0867 24.0787L24.0716 30.9981L34.8143 24.7959L22.9618 17.8Z" fill="#DAB996"/>
<path d="M15.5659 35.5739L15.3155 35.429V33.945L15.5659 34.09V35.5739ZM15.2139 35.3704L15.185 35.3536V33.8697L15.2139 33.8865V35.3704ZM15.1124 35.3118L15.0432 35.272V33.788L15.1124 33.8279V35.3118ZM14.9913 35.2419L14.9221 35.2021V33.7181L14.9913 33.7579V35.2419ZM14.8655 35.1692L14.6671 35.0548V33.5708L14.8655 33.6853V35.1692ZM14.6186 35.0267L14.5893 35.0099V33.5259L14.6186 33.5427V35.0267ZM14.537 34.9794L14.4679 34.9396V33.456L14.537 33.4958V34.9794ZM14.4284 34.9169L14.178 34.7724V33.2884L14.4284 33.4333V34.9169ZM14.144 34.7528L14.0753 34.713V33.229L14.144 33.2689V34.7528ZM14.0413 34.6935L13.8729 34.5962V33.1122L14.0413 33.2095V34.6935ZM13.8198 34.5657L13.7909 34.5489V33.065L13.8198 33.0818V34.5657ZM13.7382 34.5185L13.6694 34.4786V32.9947L13.7382 33.0345V34.5185ZM13.6257 34.4536L13.5569 34.4138V32.9298L13.6257 32.9697V34.4536ZM13.5202 34.3927L13.4515 34.3528V32.8689L13.5202 32.9087V34.3927ZM13.3976 34.3216L13.2292 34.2247V32.7408L13.3976 32.838V34.3216ZM13.0538 34.1232L12.8034 33.9786V32.4947L13.0538 32.6396V34.1232ZM12.7062 32.3345V34.0267L15.6631 35.7341V34.0419L12.7062 32.3345Z" fill="white"/>
<path d="M12.8035 33.9786L13.0539 34.1232V32.6396L12.8035 32.4947V33.9786Z" fill="#666666"/>
<path d="M14.178 34.7723L14.4284 34.9168V33.4333L14.178 33.2884V34.7723Z" fill="#666666"/>
<path d="M15.3156 35.429L15.5659 35.5739V34.0899L15.3156 33.945V35.429Z" fill="#666666"/>
<path d="M13.2292 34.2247L13.3976 34.3216V32.838L13.2292 32.7407V34.2247Z" fill="#666666"/>
<path d="M13.8729 34.5961L14.0413 34.6934V33.2094L13.8729 33.1122V34.5961Z" fill="#666666"/>
<path d="M14.667 35.0548L14.8654 35.1693V33.6853L14.667 33.5709V35.0548Z" fill="#666666"/>
<path d="M13.4515 34.3528L13.5203 34.3926V32.9087L13.4515 32.8688V34.3528Z" fill="#666666"/>
<path d="M13.5569 34.4137L13.6256 34.4536V32.9696L13.5569 32.9298V34.4137Z" fill="#666666"/>
<path d="M14.0753 34.713L14.1441 34.7528V33.2689L14.0753 33.229V34.713Z" fill="#666666"/>
<path d="M13.6694 34.4786L13.7382 34.5184V33.0344L13.6694 32.9946V34.4786Z" fill="#666666"/>
<path d="M14.9221 35.202L14.9913 35.2418V33.7579L14.9221 33.718V35.202Z" fill="#666666"/>
<path d="M15.0432 35.2719L15.1124 35.3118V33.8278L15.0432 33.788V35.2719Z" fill="#666666"/>
<path d="M13.791 34.5489L13.8199 34.5657V33.0817L13.791 33.0649V34.5489Z" fill="#666666"/>
<path d="M15.1849 35.3536L15.2138 35.3704V33.8865L15.1849 33.8697V35.3536Z" fill="#666666"/>
<path d="M14.5894 35.0098L14.6187 35.0266V33.5427L14.5894 33.5259V35.0098Z" fill="#666666"/>
<path d="M14.4679 34.9395L14.537 34.9793V33.4958L14.4679 33.4559V34.9395Z" fill="#666666"/>
<path d="M12.0785 14.1318V24.3851L24.0634 31.3049V21.0512L12.0785 14.1318Z" fill="#B28B62"/>
<path d="M24.0635 21.0512V31.3049L34.8062 25.1023V14.849L24.0635 21.0512Z" fill="#CDAC89"/>
<path d="M22.9537 7.85301L12.0785 14.1318L24.0634 21.0512L34.8062 14.849L22.9537 7.85301Z" fill="#DAB996"/>
<path d="M15.5577 25.627L15.3073 25.482V23.9981L15.5577 24.143V25.627ZM15.2058 25.4234L15.1769 25.4066V23.9227L15.2058 23.9395V25.4234ZM15.1042 25.3649L15.0351 25.325V23.8411L15.1042 23.8809V25.3649ZM14.9831 25.2949L14.914 25.2551V23.7711L14.9831 23.811V25.2949ZM14.8573 25.2223L14.6589 25.1078V23.6239L14.8573 23.7383V25.2223ZM14.6105 25.0797L14.5812 25.0629V23.5789L14.6105 23.5957V25.0797ZM14.5288 25.0324L14.4597 24.9926V23.509L14.5288 23.5489V25.0324ZM14.4202 24.9699L14.1698 24.8254V23.3415L14.4202 23.4864V24.9699ZM14.1359 24.8059L14.0671 24.766V23.2821L14.1359 23.3219V24.8059ZM14.0331 24.7465L13.8648 24.6492V23.1653L14.0331 23.2625V24.7465ZM13.8116 24.6188L13.7827 24.602V23.118L13.8116 23.1348V24.6188ZM13.73 24.5715L13.6613 24.5317V23.0477L13.73 23.0876V24.5715ZM13.6175 24.5067L13.5488 24.4668V22.9829L13.6175 23.0227V24.5067ZM13.512 24.4457L13.4433 24.4059V22.9219L13.512 22.9618V24.4457ZM13.3894 24.3746L13.221 24.2778V22.7938L13.3894 22.8911V24.3746ZM13.0456 24.1762L12.7953 24.0317V22.5477L13.0456 22.6926V24.1762ZM12.698 22.3876V24.0797L15.655 25.7871V24.095L12.698 22.3876Z" fill="white"/>
<path d="M12.7953 24.0317L13.0457 24.1762V22.6926L12.7953 22.5477V24.0317Z" fill="#666666"/>
<path d="M14.1699 24.8254L14.4203 24.9699V23.4863L14.1699 23.3414V24.8254Z" fill="#666666"/>
<path d="M15.3074 25.482L15.5578 25.6269V24.143L15.3074 23.998V25.482Z" fill="#666666"/>
<path d="M13.2211 24.2777L13.3894 24.3746V22.891L13.2211 22.7938V24.2777Z" fill="#666666"/>
<path d="M13.8647 24.6492L14.0331 24.7464V23.2625L13.8647 23.1652V24.6492Z" fill="#666666"/>
<path d="M14.6588 25.1079L14.8572 25.2223V23.7384L14.6588 23.6239V25.1079Z" fill="#666666"/>
<path d="M13.4434 24.4058L13.5121 24.4456V22.9617L13.4434 22.9219V24.4058Z" fill="#666666"/>
<path d="M13.5487 24.4668L13.6175 24.5066V23.0227L13.5487 22.9828V24.4668Z" fill="#666666"/>
<path d="M14.0671 24.766L14.1359 24.8059V23.3219L14.0671 23.2821V24.766Z" fill="#666666"/>
<path d="M13.6613 24.5316L13.73 24.5714V23.0875L13.6613 23.0476V24.5316Z" fill="#666666"/>
<path d="M14.9139 25.255L14.9831 25.2949V23.8109L14.9139 23.7711V25.255Z" fill="#666666"/>
<path d="M15.0352 25.325L15.1043 25.3648V23.8809L15.0352 23.841V25.325Z" fill="#666666"/>
<path d="M13.7828 24.6019L13.8117 24.6187V23.1348L13.7828 23.118V24.6019Z" fill="#666666"/>
<path d="M15.1768 25.4066L15.2057 25.4234V23.9395L15.1768 23.9227V25.4066Z" fill="#666666"/>
<path d="M14.5813 25.0629L14.6106 25.0797V23.5957L14.5813 23.5789V25.0629Z" fill="#666666"/>
<path d="M14.4597 24.9925L14.5289 25.0324V23.5488L14.4597 23.509V24.9925Z" fill="#666666"/>
</svg>
