<svg width="28" height="42" viewBox="0 0 28 42" fill="none" xmlns="http://www.w3.org/2000/svg">
<path d="M0.0100098 20.4167V33.044L14.7698 41.5659V28.9381L0.0100098 20.4167Z" fill="#B28B62"/>
<path d="M14.7699 28.9381V41.5659L28 33.9272V21.2999L14.7699 28.9381Z" fill="#CDAC89"/>
<path d="M13.4032 12.6841L0.0100098 20.4166L14.7698 28.938L27.9999 21.2998L13.4032 12.6841Z" fill="#DAB996"/>
<path d="M4.2949 34.5733L3.98654 34.3948V32.5673L4.2949 32.7457V34.5733ZM3.86146 34.3226L3.82586 34.302V32.4744L3.86146 32.4951V34.3226ZM3.73639 34.2505L3.65124 34.2014V32.3739L3.73639 32.4229V34.2505ZM3.58726 34.1644L3.50211 34.1153V32.2878L3.58726 32.3368V34.1644ZM3.43235 34.0749L3.18798 33.9339V32.1064L3.43235 32.2474V34.0749ZM3.12833 33.8993L3.09225 33.8786V32.0511L3.12833 32.0718V33.8993ZM3.02779 33.8411L2.94264 33.792V31.965L3.02779 32.014V33.8411ZM2.89405 33.7641L2.58569 33.5861V31.7586L2.89405 31.9371V33.7641ZM2.54384 33.5621L2.45918 33.513V31.6855L2.54384 31.7346V33.5621ZM2.41732 33.489L2.20999 33.3692V31.5416L2.41732 31.6614V33.489ZM2.14457 33.3317L2.10897 33.311V31.4834L2.14457 31.5041V33.3317ZM2.04402 33.2735L1.95936 33.2244V31.3968L2.04402 31.4459V33.2735ZM1.90547 33.1936L1.82081 33.1445V31.317L1.90547 31.3661V33.1936ZM1.77559 33.1186L1.69092 33.0695V31.2419L1.77559 31.291V33.1186ZM1.62454 33.031L1.4172 32.9117V31.0842L1.62454 31.2039V33.031ZM1.20121 32.7866L0.892847 32.6086V30.7811L1.20121 30.9596V32.7866ZM0.773071 30.5839V32.6678L4.41468 34.7705V32.6866L0.773071 30.5839Z" fill="white"/>
<path d="M0.892822 32.6087L1.20119 32.7867V30.9596L0.892822 30.7811V32.6087Z" fill="#666666"/>
<path d="M2.58569 33.5861L2.89405 33.7641V31.937L2.58569 31.7586V33.5861Z" fill="#666666"/>
<path d="M3.98657 34.3948L4.29493 34.5732V32.7457L3.98657 32.5672V34.3948Z" fill="#666666"/>
<path d="M1.41711 32.9117L1.62446 33.031V31.2039L1.41711 31.0842V32.9117Z" fill="#666666"/>
<path d="M2.20984 33.3691L2.41717 33.4889V31.6613L2.20984 31.5416V33.3691Z" fill="#666666"/>
<path d="M3.18799 33.934L3.43236 34.075V32.2474L3.18799 32.1065V33.934Z" fill="#666666"/>
<path d="M1.69092 33.0694L1.77558 33.1185V31.2909L1.69092 31.2419V33.0694Z" fill="#666666"/>
<path d="M1.8208 33.1445L1.90547 33.1935V31.366L1.8208 31.3169V33.1445Z" fill="#666666"/>
<path d="M2.45923 33.5131L2.54389 33.5621V31.7346L2.45923 31.6855V33.5131Z" fill="#666666"/>
<path d="M1.95935 33.2243L2.04401 33.2734V31.4458L1.95935 31.3968V33.2243Z" fill="#666666"/>
<path d="M3.50208 34.1152L3.58723 34.1643V32.3368L3.50208 32.2877V34.1152Z" fill="#666666"/>
<path d="M3.65125 34.2014L3.7364 34.2505V32.4229L3.65125 32.3739V34.2014Z" fill="#666666"/>
<path d="M2.10901 33.3109L2.14461 33.3316V31.5041L2.10901 31.4834V33.3109Z" fill="#666666"/>
<path d="M3.82556 34.302L3.86116 34.3227V32.4952L3.82556 32.4745V34.302Z" fill="#666666"/>
<path d="M3.09229 33.8786L3.12836 33.8993V32.0717L3.09229 32.0511V33.8786Z" fill="#666666"/>
<path d="M2.94263 33.7919L3.02777 33.841V32.0139L2.94263 31.9649V33.7919Z" fill="#666666"/>
<path d="M0 8.16661V20.7939L14.7598 29.3159V16.6881L0 8.16661Z" fill="#B28B62"/>
<path d="M14.7599 16.6881V29.3159L27.9899 21.6771V9.04985L14.7599 16.6881Z" fill="#CDAC89"/>
<path d="M13.3931 0.434065L0 8.16658L14.7598 16.688L27.9899 9.04982L13.3931 0.434065Z" fill="#DAB996"/>
<path d="M4.28476 22.3233L3.97641 22.1448V20.3173L4.28476 20.4957V22.3233ZM3.85133 22.0726L3.81573 22.052V20.2244L3.85133 20.2451V22.0726ZM3.72626 22.0005L3.6411 21.9514V20.1239L3.72626 20.1729V22.0005ZM3.57713 21.9144L3.49198 21.8653V20.0378L3.57713 20.0868V21.9144ZM3.42222 21.8249L3.17785 21.6839V19.8564L3.42222 19.9974V21.8249ZM3.1182 21.6493L3.08212 21.6286V19.8011L3.1182 19.8218V21.6493ZM3.01765 21.5911L2.93251 21.542V19.715L3.01765 19.764V21.5911ZM2.88392 21.5141L2.57556 21.3361V19.5086L2.88392 19.6871V21.5141ZM2.53371 21.3121L2.44905 21.263V19.4355L2.53371 19.4846V21.3121ZM2.40719 21.239L2.19986 21.1192V19.2916L2.40719 19.4114V21.239ZM2.13443 21.0817L2.09883 21.061V19.2334L2.13443 19.2541V21.0817ZM2.03389 21.0235L1.94923 20.9744V19.1468L2.03389 19.1959V21.0235ZM1.89534 20.9436L1.81068 20.8945V19.067L1.89534 19.1161V20.9436ZM1.76546 20.8686L1.68079 20.8195V18.9919L1.76546 19.041V20.8686ZM1.61441 20.781L1.40707 20.6617V18.8342L1.61441 18.9539V20.781ZM1.19108 20.5366L0.882715 20.3586V18.5311L1.19108 18.7096V20.5366ZM0.762939 18.3339V20.4178L4.40455 22.5205V20.4366L0.762939 18.3339Z" fill="white"/>
<path d="M0.88269 20.3586L1.19106 20.5366V18.7096L0.88269 18.5311V20.3586Z" fill="#666666"/>
<path d="M2.57568 21.3361L2.88404 21.5141V19.687L2.57568 19.5086V21.3361Z" fill="#666666"/>
<path d="M3.97644 22.1447L4.2848 22.3232V20.4956L3.97644 20.3172V22.1447Z" fill="#666666"/>
<path d="M1.4071 20.6617L1.61445 20.781V18.9539L1.4071 18.8342V20.6617Z" fill="#666666"/>
<path d="M2.19983 21.1191L2.40716 21.2389V19.4113L2.19983 19.2916V21.1191Z" fill="#666666"/>
<path d="M3.17786 21.684L3.42223 21.825V19.9974L3.17786 19.8565V21.684Z" fill="#666666"/>
<path d="M1.68091 20.8193L1.76557 20.8684V19.0409L1.68091 18.9918V20.8193Z" fill="#666666"/>
<path d="M1.81067 20.8945L1.89533 20.9435V19.116L1.81067 19.0669V20.8945Z" fill="#666666"/>
<path d="M2.4491 21.263L2.53376 21.3121V19.4845L2.4491 19.4355V21.263Z" fill="#666666"/>
<path d="M1.94934 20.9743L2.03401 21.0234V19.1958L1.94934 19.1468V20.9743Z" fill="#666666"/>
<path d="M3.49207 21.8652L3.57722 21.9143V20.0868L3.49207 20.0377V21.8652Z" fill="#666666"/>
<path d="M3.64111 21.9514L3.72627 22.0005V20.1729L3.64111 20.1239V21.9514Z" fill="#666666"/>
<path d="M2.099 21.0609L2.1346 21.0816V19.2541L2.099 19.2334V21.0609Z" fill="#666666"/>
<path d="M3.81555 22.0519L3.85115 22.0726V20.2451L3.81555 20.2244V22.0519Z" fill="#666666"/>
<path d="M3.08215 21.6286L3.11823 21.6493V19.8217L3.08215 19.8011V21.6286Z" fill="#666666"/>
<path d="M2.93262 21.5419L3.01776 21.591V19.7639L2.93262 19.7149V21.5419Z" fill="#666666"/>
</svg>
