<svg width="32" height="34" viewBox="0 0 32 34" fill="none" xmlns="http://www.w3.org/2000/svg">
<path d="M0 9.33332V23.7645L16.8683 33.5038V19.0721L0 9.33332Z" fill="#B28B62"/>
<path d="M16.8684 19.0721V33.5038L31.9884 24.7739V10.3427L16.8684 19.0721Z" fill="#CDAC89"/>
<path d="M15.3064 0.496132L0 9.33328L16.8683 19.0721L31.9884 10.3427L15.3064 0.496132Z" fill="#DAB996"/>
<path d="M4.89688 25.5123L4.54448 25.3084V23.2197L4.89688 23.4237V25.5123ZM4.40153 25.2259L4.36085 25.2022V23.1136L4.40153 23.1373V25.2259ZM4.25859 25.1434L4.16127 25.0873V22.9987L4.25859 23.0548V25.1434ZM4.08816 25.045L3.99084 24.9889V22.9003L4.08816 22.9564V25.045ZM3.91112 24.9428L3.63184 24.7817V22.693L3.91112 22.8541V24.9428ZM3.56367 24.7421L3.52243 24.7184V22.6298L3.56367 22.6535V24.7421ZM3.44876 24.6756L3.35145 24.6195V22.5314L3.44876 22.5875V24.6756ZM3.29592 24.5876L2.94351 24.3842V22.2956L3.29592 22.4995V24.5876ZM2.89569 24.3567L2.79893 24.3006V22.212L2.89569 22.2681V24.3567ZM2.75109 24.2731L2.51414 24.1362V22.0476L2.75109 22.1845V24.2731ZM2.43937 24.0933L2.39868 24.0697V21.9811L2.43937 22.0047V24.0933ZM2.32446 24.0268L2.2277 23.9707V21.8821L2.32446 21.9382V24.0268ZM2.16612 23.9355L2.06936 23.8795V21.7909L2.16612 21.8469V23.9355ZM2.01768 23.8498L1.92092 23.7937V21.7051L2.01768 21.7612V23.8498ZM1.84506 23.7497L1.60809 23.6134V21.5248L1.84506 21.6617V23.7497ZM1.36125 23.4704L1.00883 23.267V21.1784L1.36125 21.3824V23.4704ZM0.871948 20.953V23.3346L5.03378 25.7377V23.3561L0.871948 20.953Z" fill="white"/>
<path d="M1.00891 23.267L1.36133 23.4705V21.3824L1.00891 21.1784V23.267Z" fill="#666666"/>
<path d="M2.9436 24.3841L3.29601 24.5875V22.4995L2.9436 22.2955V24.3841Z" fill="#666666"/>
<path d="M4.54456 25.3083L4.89696 25.5123V23.4237L4.54456 23.2197V25.3083Z" fill="#666666"/>
<path d="M1.60815 23.6133L1.84512 23.7497V21.6616L1.60815 21.5247V23.6133Z" fill="#666666"/>
<path d="M2.51416 24.1361L2.75111 24.273V22.1844L2.51416 22.0475V24.1361Z" fill="#666666"/>
<path d="M3.63184 24.7817L3.91112 24.9428V22.8542L3.63184 22.6931V24.7817Z" fill="#666666"/>
<path d="M1.92102 23.7936L2.01778 23.8497V21.7611L1.92102 21.705V23.7936Z" fill="#666666"/>
<path d="M2.06934 23.8794L2.1661 23.9355V21.8469L2.06934 21.7908V23.8794Z" fill="#666666"/>
<path d="M2.79895 24.3006L2.89571 24.3567V22.2681L2.79895 22.212V24.3006Z" fill="#666666"/>
<path d="M2.22778 23.9706L2.32454 24.0267V21.9381L2.22778 21.882V23.9706Z" fill="#666666"/>
<path d="M3.99084 24.9888L4.08816 25.0449V22.9563L3.99084 22.9002V24.9888Z" fill="#666666"/>
<path d="M4.16138 25.0873L4.25869 25.1434V23.0548L4.16138 22.9987V25.0873Z" fill="#666666"/>
<path d="M2.3988 24.0696L2.43949 24.0933V22.0046L2.3988 21.981V24.0696Z" fill="#666666"/>
<path d="M4.36072 25.2022L4.4014 25.2259V23.1373L4.36072 23.1136V25.2022Z" fill="#666666"/>
<path d="M3.52258 24.7184L3.56382 24.7421V22.6534L3.52258 22.6298V24.7184Z" fill="#666666"/>
<path d="M3.35156 24.6194L3.44887 24.6755V22.5874L3.35156 22.5313V24.6194Z" fill="#666666"/>
</svg>
