<svg width="20" height="42" viewBox="0 0 20 42" fill="none" xmlns="http://www.w3.org/2000/svg">
<circle opacity="0.5" cx="10" cy="32" r="10" fill="#F2A3A3"/>
<circle cx="10" cy="32" r="7" fill="#F2A3A3"/>
<mask id="mask0_1_1792" style="mask-type:luminance" maskUnits="userSpaceOnUse" x="1" y="1" width="18" height="18">
<path d="M16.6667 5H3.33333C2.8731 5 2.5 5.3731 2.5 5.83333V16.6667C2.5 17.1269 2.8731 17.5 3.33333 17.5H16.6667C17.1269 17.5 17.5 17.1269 17.5 16.6667V5.83333C17.5 5.3731 17.1269 5 16.6667 5Z" fill="white" stroke="white" stroke-width="1.75" stroke-linejoin="round"/>
<path d="M7.47925 10.0034H12.4792" stroke="black" stroke-width="1.75" stroke-linecap="round" stroke-linejoin="round"/>
<path d="M2.5 5.41671L5.41667 2.08337H14.5833L17.5 5.41671" stroke="white" stroke-width="1.75" stroke-linecap="round" stroke-linejoin="round"/>
</mask>
<g mask="url(#mask0_1_1792)">
<path d="M0 0H20V20H0V0Z" fill="#6D3FFF"/>
</g>
<path d="M9.5 32.5C9.5 32.7761 9.72386 33 10 33C10.2761 33 10.5 32.7761 10.5 32.5H9.5ZM10.5 32.5V20H9.5V32.5H10.5Z" fill="#6D3FFF"/>
</svg>
