<svg width="208" height="189" viewBox="0 0 208 189" fill="none" xmlns="http://www.w3.org/2000/svg">
<path d="M75.8173 146.591V171.805L105.29 188.822V163.607L75.8173 146.591Z" fill="#B28B62"/>
<path d="M105.29 163.607V188.822L131.708 173.569V148.355L105.29 163.607Z" fill="#CDAC89"/>
<path d="M102.561 131.151L75.8173 146.591L105.29 163.607L131.708 148.355L102.561 131.151Z" fill="#DAB996"/>
<path d="M119.375 180.69L117.623 181.701V156.46L89.6998 138.576L91.4077 137.59L119.375 155.502V180.69Z" fill="#474545"/>
<path d="M89.6814 179.811L87.9293 178.798V153.57L115.331 138.706L117.106 139.735L89.6814 154.612V179.811Z" fill="#474545"/>
<path d="M104.164 145.755C104.088 146.178 103.716 146.489 103.285 146.489C102.857 146.488 102.487 146.176 102.411 145.755C102.411 120.765 102.411 95.7759 102.411 70.7865H104.164V145.755Z" fill="#353030"/>
<path d="M84.3733 174.859L83.7576 174.503V170.853L84.3733 171.21V174.859ZM83.5078 174.359L83.4368 174.317V170.668L83.5078 170.709V174.359ZM83.2581 174.215L83.0881 174.117V170.467L83.2581 170.565V174.215ZM82.9603 174.043L82.7903 173.945V170.295L82.9603 170.393V174.043ZM82.651 173.864L82.163 173.582V169.933L82.651 170.215V173.864ZM82.0439 173.513L81.9719 173.472V169.823L82.0439 169.864V173.513ZM81.8432 173.397L81.6731 173.299V169.651L81.8432 169.749V173.397ZM81.5761 173.243L80.9604 172.888V169.239L81.5761 169.595V173.243ZM80.8768 172.84L80.7078 172.742V169.093L80.8768 169.191V172.84ZM80.6242 172.694L80.2102 172.455V168.806L80.6242 169.045V172.694ZM80.0795 172.38L80.0085 172.339V168.689L80.0795 168.731V172.38ZM79.8788 172.264L79.7097 172.166V168.516L79.8788 168.614V172.264ZM79.6021 172.104L79.4331 172.006V168.357L79.6021 168.455V172.104ZM79.3428 171.954L79.1737 171.856V168.207L79.3428 168.305V171.954ZM79.0412 171.779L78.6271 171.541V167.892L79.0412 168.131V171.779ZM78.1959 171.292L77.5801 170.936V167.287L78.1959 167.643V171.292ZM77.3409 166.893V171.054L84.6125 175.253V171.092L77.3409 166.893Z" fill="white"/>
<path d="M77.58 170.936L78.1958 171.292V167.643L77.58 167.287V170.936Z" fill="#666666"/>
<path d="M80.9604 172.888L81.5761 173.243V169.595L80.9604 169.239V172.888Z" fill="#666666"/>
<path d="M83.7575 174.503L84.3732 174.859V171.21L83.7575 170.853V174.503Z" fill="#666666"/>
<path d="M78.6272 171.541L79.0412 171.779V168.131L78.6272 167.892V171.541Z" fill="#666666"/>
<path d="M80.2101 172.455L80.6241 172.694V169.045L80.2101 168.805V172.455Z" fill="#666666"/>
<path d="M82.163 173.582L82.6509 173.864V170.215L82.163 169.933V173.582Z" fill="#666666"/>
<path d="M79.1737 171.856L79.3428 171.954V168.305L79.1737 168.207V171.856Z" fill="#666666"/>
<path d="M79.4329 172.006L79.6019 172.104V168.455L79.4329 168.357V172.006Z" fill="#666666"/>
<path d="M80.7077 172.742L80.8768 172.84V169.191L80.7077 169.093V172.742Z" fill="#666666"/>
<path d="M79.7097 172.165L79.8787 172.263V168.614L79.7097 168.516V172.165Z" fill="#666666"/>
<path d="M82.7901 173.945L82.9602 174.042V170.393L82.7901 170.295V173.945Z" fill="#666666"/>
<path d="M83.0881 174.116L83.2581 174.214V170.565L83.0881 170.467V174.116Z" fill="#666666"/>
<path d="M80.0085 172.338L80.0796 172.38V168.73L80.0085 168.689V172.338Z" fill="#666666"/>
<path d="M83.4365 174.317L83.5076 174.359V170.709L83.4365 170.668V174.317Z" fill="#666666"/>
<path d="M81.9719 173.472L82.044 173.513V169.864L81.9719 169.823V173.472Z" fill="#666666"/>
<path d="M81.6731 173.299L81.8431 173.397V169.749L81.6731 169.651V173.299Z" fill="#666666"/>
<path d="M40.5478 70.5559V80.9128L43.0424 82.3537V71.9968L40.5478 70.5559Z" fill="#A07272"/>
<path d="M37.3109 75.3059V85.6628L43.0426 82.3527V71.9967L37.3109 75.3059Z" fill="#465356"/>
<path d="M34.8151 73.865V84.222L37.3107 85.6628V75.3059L34.8151 73.865Z" fill="#7A8B91"/>
<path d="M37.3107 75.3059L43.0425 71.9967L40.5479 70.5559L34.8151 73.865L37.3107 75.3059Z" fill="#636060"/>
<path d="M43.0425 42.4809V68.8017L49.3833 72.4625V46.1417L43.0425 42.4809Z" fill="#A07272"/>
<path d="M34.8151 54.5526V80.8734L49.3832 72.4626V46.1418L34.8151 54.5526Z" fill="#5E6E72"/>
<path d="M28.4744 50.8918V77.2126L34.8152 80.8734V54.5526L28.4744 50.8918Z" fill="#7A8B91"/>
<path d="M34.8152 54.5526L49.3833 46.1417L43.0425 42.481L28.4744 50.8918L34.8152 54.5526Z" fill="#9AAEB7"/>
<path d="M46.2133 59.4592L37.7084 66.4455L50.4216 73.7853L58.939 66.6223L46.2133 59.4592Z" fill="#9AAEB7"/>
<path d="M37.7084 66.4456V70.2984L50.4216 77.6392V73.7853L37.7084 66.4456Z" fill="#465356"/>
<path d="M50.4216 73.7853V77.6392L58.9391 72.72V66.6223L50.4216 73.7853Z" fill="#595353"/>
<path d="M59.4137 32.8946L39.7027 44.2745L37.0832 43.629L59.4137 32.8946Z" fill="#DAE5EA"/>
<path d="M59.4136 32.8944V33.6552L39.9446 45.0726V44.1351L59.4136 32.8944Z" fill="#9BA6AA"/>
<path d="M37.0177 41.5377V47.5048L35.5807 48.3347V42.3676L37.0177 41.5377Z" fill="#A07272"/>
<path d="M38.8831 44.2745V50.2416L35.5807 48.3348V42.3677L38.8831 44.2745Z" fill="#7A8B91"/>
<path d="M40.3202 43.4445V49.4116L38.8832 50.2416V44.2745L40.3202 43.4445Z" fill="#5E6E72"/>
<path d="M38.8831 44.2745L35.5807 42.3678L37.0177 41.5378L40.3202 43.4446L38.8831 44.2745Z" fill="#9AAEB7"/>
<path d="M36.1052 43.4445L37.9505 45.1342L18.2394 56.5141L36.1052 43.4445Z" fill="#DAE5EA"/>
<path d="M37.9505 45.1342V45.894L18.2394 57.4545V56.5141L37.9505 45.1342Z" fill="#9BA6AA"/>
<path d="M15.4711 54.5967C15.4711 54.5967 0.902064 47.8612 12.2542 35.7512L34.0122 43.3484L15.4711 54.5967Z" fill="#ECF2F4"/>
<path d="M63.9697 53.6621L49.3834 48.5691V46.1418L45.6439 43.9824L60.7528 34.8176C60.7528 34.8176 75.3218 41.5521 63.9697 53.6621Z" fill="#ECF2F4"/>
<path d="M49.3834 48.5692L46.7639 47.6548L49.3834 46.1418V48.5692Z" fill="#9CAAAE"/>
<path d="M46.7637 47.6547L42.2115 46.0649L45.6437 43.9824L49.3832 46.1418L46.7637 47.6547Z" fill="#BACAD1"/>
<path d="M37.3109 80.8734V79.4325L43.0426 76.1233V77.5574L37.3109 80.8734Z" fill="#31383C"/>
<path d="M37.9496 26.9361C29.2237 26.9361 20.4988 28.8533 13.8564 32.6889C7.84893 36.1566 4.54166 40.631 4.54166 45.2879C4.54166 49.9447 7.8499 54.42 13.8573 57.8887C27.1421 65.5589 48.7599 65.5589 62.0456 57.8887C68.0521 54.421 71.3603 49.9457 71.3603 45.2888C71.3603 40.6319 68.0511 36.1576 62.0447 32.6889C55.4013 28.8533 46.6754 26.9361 37.9496 26.9361ZM37.9515 68.116C28.4024 68.116 18.8562 66.0181 11.5865 61.8213C4.11517 57.5074 6.10352e-05 51.6363 6.10352e-05 45.2879C6.10352e-05 38.9404 4.11518 33.0693 11.5856 28.7563C26.122 20.3628 49.7762 20.3628 64.3145 28.7563C71.7859 33.0703 75.901 38.9413 75.901 45.2888C75.901 51.6363 71.7868 57.5074 64.3155 61.8213C57.0477 66.0171 47.4977 68.116 37.9515 68.116Z" fill="#586468"/>
<path d="M44.0655 75.5336L37.7084 71.8161V70.2984L44.7436 74.3607L43.6678 74.9687C43.8311 75.1407 43.9944 75.3117 44.1558 75.4807L44.0655 75.5336Z" fill="#424A4F"/>
<path d="M101.114 48.0947V58.4517L103.609 59.8925V49.5356L101.114 48.0947Z" fill="#A07272"/>
<path d="M97.8771 52.8447V63.2016L103.609 59.8924V49.5355L97.8771 52.8447Z" fill="#465356"/>
<path d="M95.3813 51.4047V61.7617L97.8769 63.2016V52.8447L95.3813 51.4047Z" fill="#7A8B91"/>
<path d="M97.8769 52.8446L103.609 49.5354L101.114 48.0946L95.3813 51.4047L97.8769 52.8446Z" fill="#636060"/>
<path d="M103.609 20.0199V46.3406L109.949 50.0014V23.6806L103.609 20.0199Z" fill="#A07272"/>
<path d="M95.3813 32.0914V58.4121L109.949 50.0013V23.6806L95.3813 32.0914Z" fill="#5E6E72"/>
<path d="M89.0407 28.4306V54.7514L95.3814 58.4121V32.0914L89.0407 28.4306Z" fill="#7A8B91"/>
<path d="M95.3814 32.0914L109.95 23.6806L103.609 20.0199L89.0407 28.4307L95.3814 32.0914Z" fill="#9AAEB7"/>
<path d="M106.779 36.999L98.2747 43.9843L110.988 51.3251L119.505 44.162L106.779 36.999Z" fill="#9AAEB7"/>
<path d="M98.2747 43.9844V47.8373L110.988 55.178V51.3251L98.2747 43.9844Z" fill="#465356"/>
<path d="M110.988 51.3251V55.178L119.505 50.2589V44.1621L110.988 51.3251Z" fill="#595353"/>
<path d="M77.5378 11.0643L97.2488 22.4443L99.8673 21.7988L77.5378 11.0643Z" fill="#DAE5EA"/>
<path d="M77.5378 11.0643V11.8241L97.0067 23.2425V22.304L77.5378 11.0643Z" fill="#9BA6AA"/>
<path d="M99.9326 19.7077V25.6748L101.371 26.5047V20.5376L99.9326 19.7077Z" fill="#A07272"/>
<path d="M98.0683 22.4445V28.4116L101.371 26.5048V20.5377L98.0683 22.4445Z" fill="#7A8B91"/>
<path d="M96.6301 21.6145V27.5816L98.068 28.4116V22.4445L96.6301 21.6145Z" fill="#5E6E72"/>
<path d="M98.068 22.4443L101.371 20.5375L99.9325 19.7076L96.6301 21.6144L98.068 22.4443Z" fill="#9AAEB7"/>
<path d="M100.845 21.6144L98.9999 23.303L118.711 34.684L100.845 21.6144Z" fill="#DAE5EA"/>
<path d="M98.9999 23.3032V24.064L118.711 35.6245V34.6841L98.9999 23.3032Z" fill="#9BA6AA"/>
<mask id="mask0_1_3647" style="mask-type:luminance" maskUnits="userSpaceOnUse" x="104" y="13" width="26" height="20">
<path d="M121.48 32.7667L109.95 25.7717V23.6805L104.973 20.8075L124.696 13.9211C136.049 26.0311 121.48 32.7667 121.48 32.7667Z" fill="white"/>
</mask>
<g mask="url(#mask0_1_3647)">
<path d="M104.973 32.7667H136.049V13.9212H104.973V32.7667Z" fill="#ECF2F4"/>
</g>
<path d="M109.95 25.7718L108.184 24.7007L109.95 23.6806V25.7718Z" fill="#9CAAAE"/>
<path d="M108.184 24.7007L102.938 21.5183L104.973 20.8075L109.949 23.6806L108.184 24.7007Z" fill="#BACAD1"/>
<path d="M72.9816 31.8321C61.6295 19.7221 76.1977 12.9865 76.1977 12.9865L94.7396 24.2349L72.9816 31.8321Z" fill="#ECF2F4"/>
<path d="M98.5158 4.47487C89.7899 4.47487 81.065 6.39217 74.4226 10.2277C68.4152 13.6954 65.1079 18.1698 65.1079 22.8267C65.1079 27.4845 68.4161 31.9599 74.4226 35.4275C87.7083 43.0977 109.326 43.0977 122.611 35.4275C128.618 31.9599 131.927 27.4845 131.927 22.8276C131.927 18.1707 128.617 13.6964 122.611 10.2277C115.968 6.39217 107.241 4.47487 98.5158 4.47487ZM98.5177 45.6548C88.9686 45.6548 79.4224 43.5569 72.1528 39.3601C64.6814 35.0462 60.5663 29.1751 60.5663 22.8267C60.5663 16.4792 64.6814 10.6082 72.1518 6.29516C86.6882 -2.09835 110.342 -2.09835 124.881 6.29516C132.352 10.6091 136.467 16.4801 136.467 22.8276C136.467 29.1751 132.352 35.0471 124.882 39.3601C117.614 43.5569 108.064 45.6548 98.5177 45.6548Z" fill="#586468"/>
<path d="M102.56 51.8609L98.2747 49.3557V47.8371L103.942 51.1097L102.56 51.8609Z" fill="#424A4F"/>
<path d="M88.3223 56.489V66.846L90.8169 68.2859V57.929L88.3223 56.489Z" fill="#A07272"/>
<path d="M85.0851 61.2391V71.5961L90.8169 68.2859V57.929L85.0851 61.2391Z" fill="#474545"/>
<path d="M82.5894 59.7983V70.1552L85.085 71.5961V61.2391L82.5894 59.7983Z" fill="#202020"/>
<path d="M85.085 61.2393L90.8168 57.9291L88.3221 56.4892L82.5894 59.7984L85.085 61.2393Z" fill="#636060"/>
<path d="M43.6882 81.2498C44.1502 83.3823 45.179 86.7943 47.6573 90.3004C49.4574 92.8469 51.4275 94.6028 52.9308 95.7382C71.2308 85.1728 89.5307 74.6075 107.831 64.0411L119.46 42.6837L95.2423 55.834L81.5281 59.367L43.6882 81.2498Z" fill="#3F2E2E"/>
<path d="M52.9308 80.981V95.7383C55.3121 98.6066 58.1333 101.572 61.4694 104.459C74.659 115.876 89.133 120.221 98.4535 122.038C98.4631 117.119 98.4727 112.2 98.4813 107.281L52.9308 80.981Z" fill="#202020"/>
<path d="M89.2108 107.549C89.5287 109.419 90.3164 112.6 92.4988 115.937C94.5362 119.055 96.9261 120.985 98.4534 122.038C106.925 116.937 115.393 111.827 123.856 106.705C132.768 101.312 141.672 95.9093 150.567 90.4965C151.746 86.998 152.875 83.1211 153.846 78.8917C155.087 73.4846 155.85 68.4618 156.306 63.9567C146.106 69.8057 135.904 75.6546 125.703 81.5026L121.779 88.7453L89.2108 107.549Z" fill="#474545"/>
<path d="M89.7948 110.076C89.6949 109.741 89.5998 109.386 89.5105 109.012C89.5912 109.347 89.6853 109.703 89.7948 110.076Z" fill="#161516"/>
<path d="M95.6879 103.809C95.6841 103.805 95.6802 103.8 95.6774 103.797L98.3872 102.232C98.3901 102.237 98.3929 102.24 98.3958 102.245L95.6879 103.809ZM114.948 92.6884L114.933 92.6788L121.785 88.7232C121.788 88.7212 121.791 88.7193 121.794 88.7174L121.779 88.7453L114.948 92.6884Z" fill="#B2ABB1"/>
<path d="M89.2223 107.542C89.2213 107.536 89.2204 107.53 89.2194 107.525L91.6948 106.096C91.6977 106.1 91.7015 106.105 91.7044 106.109L89.2223 107.542Z" fill="#161516"/>
<path d="M89.8101 110.12C89.8092 110.12 89.8082 110.119 89.8082 110.119C89.8034 110.105 89.7996 110.09 89.7947 110.076C89.6852 109.703 89.5911 109.347 89.5104 109.011C89.5018 108.974 89.4931 108.936 89.4845 108.897C89.375 108.423 89.2895 107.969 89.2222 107.542L91.7044 106.109C92.2336 106.787 92.8196 107.45 93.4603 108.093C91.2683 109.338 89.8687 110.12 89.8101 110.12ZM97.5802 105.743C96.8771 105.116 96.245 104.471 95.6879 103.809L98.3957 102.245C98.8693 102.917 99.4245 103.608 100.067 104.317C99.2084 104.811 98.3756 105.287 97.5802 105.743ZM117.539 94.2599L114.948 92.6884L121.779 88.7452L121.793 88.7174C123.117 87.946 123.94 85.728 124.863 83.7953L126.415 81.3123C128.208 80.271 130.001 79.2297 131.794 78.1885C132.639 78.2711 133.481 78.3729 134.316 78.492L128.134 81.9578L122.759 91.2466C122.759 91.2466 120.668 92.455 117.539 94.2599ZM142.978 73.6353C142.476 73.2722 142 72.9024 141.552 72.524L144.845 70.6114C145.511 71.0812 146.101 71.4299 146.509 71.6546L142.978 73.6353Z" fill="#322E30"/>
<path d="M72.5572 108.592C71.2287 107.825 70.1519 105.96 70.1519 104.425C70.1519 102.891 71.2287 102.269 72.5572 103.036C73.8866 103.803 74.9634 105.669 74.9634 107.203C74.9634 108.738 73.8866 109.359 72.5572 108.592ZM72.5572 101.965C70.7167 100.901 69.224 101.763 69.224 103.89C69.224 106.015 70.7167 108.6 72.5572 109.664C74.3986 110.726 75.8914 109.864 75.8914 107.739C75.8914 105.613 74.3986 103.028 72.5572 101.965Z" fill="#687D8C"/>
<path d="M72.5572 107.559C71.7225 107.078 71.0462 105.905 71.0462 104.942C71.0462 104.824 71.0568 104.716 71.076 104.617C71.1999 104.755 71.3373 104.874 71.4833 104.959C72.0154 105.266 72.4467 105.016 72.4467 104.402C72.4467 104.269 72.4237 104.13 72.3862 103.99C72.4429 104.016 72.4986 104.035 72.5572 104.069C73.3919 104.551 74.0691 105.722 74.0691 106.687C74.0691 107.65 73.3919 108.041 72.5572 107.559ZM72.5572 103.036C71.2287 102.269 70.1519 102.891 70.1519 104.425C70.1519 105.96 71.2287 107.825 72.5572 108.592C73.8866 109.359 74.9634 108.738 74.9634 107.203C74.9634 105.669 73.8866 103.803 72.5572 103.036Z" fill="#445768"/>
<path d="M72.5572 104.069C72.4986 104.035 72.4429 104.016 72.3862 103.99C72.4237 104.13 72.4467 104.269 72.4467 104.402C72.4467 105.017 72.0154 105.266 71.4833 104.959C71.3373 104.874 71.1999 104.755 71.076 104.617C71.0568 104.716 71.0462 104.824 71.0462 104.942C71.0462 105.905 71.7225 107.078 72.5572 107.559C73.3919 108.041 74.0691 107.65 74.0691 106.687C74.0691 105.723 73.3919 104.551 72.5572 104.069Z" fill="#151D26"/>
<path d="M119.46 42.6837L95.2422 55.834L83.7124 58.0693L43.6679 81.2259C47.7033 85.8482 54.045 92.0621 63.1177 97.498C73.318 103.61 82.8517 106.273 89.2194 107.525C100.075 101.258 110.93 94.99 121.785 88.7232C124.003 87.4427 124.818 82.0971 127.036 80.8167C137.722 74.6479 145.622 70.1255 156.306 63.9567C156.466 63.4245 156.659 62.6416 156.733 61.6839C157.308 54.2692 149.883 48.3405 147.945 46.794C140.393 40.7645 129.165 38.2113 120.691 42.068C120.174 42.3033 119.753 42.5233 119.46 42.6837Z" fill="#DADEE0"/>
<path d="M89.2194 107.525L121.785 88.7232V80.1692L86.6719 100.461L89.2194 107.525Z" fill="#9EACB2"/>
<path d="M121.785 88.723C122.086 88.5146 122.551 88.1592 123.036 87.6376C123.939 86.6626 124.242 85.8144 125.278 83.631C125.525 83.1094 125.913 82.3035 126.415 81.3122C126.351 78.8637 126.287 76.4152 126.224 73.9667L121.785 80.1691V88.723Z" fill="#7A8589"/>
<path d="M126.224 73.9667L156.114 57.0933C156.386 57.854 156.684 58.9472 156.749 60.2872C156.824 61.8452 156.554 63.1199 156.306 63.9566C146.342 69.7421 136.379 75.5267 126.415 81.3123L126.224 73.9667Z" fill="#9EACB2"/>
<path d="M86.671 100.461L43.6679 74.9687V81.2259C43.6679 81.2259 58.4118 101.004 89.2194 107.525L86.671 100.461Z" fill="#CFDEE2"/>
<path d="M43.6679 74.9687C48.1432 79.6957 52.266 83.1874 55.3207 85.5706C60.6029 89.6915 66.7477 94.4079 75.8482 97.6796C80.2976 99.279 84.1264 100.056 86.6719 100.461C98.3756 93.698 110.08 86.9336 121.785 80.1693L78.6895 55.1539L43.6679 74.9687Z" fill="#E1E7EA"/>
<path d="M78.6895 55.154L95.2421 55.8341L126.224 73.9669L121.785 80.1693L78.6895 55.154Z" fill="#A3B3B7"/>
<path d="M156.129 64.2036L147.624 71.1899L160.338 78.5296L168.855 71.3666L156.129 64.2036Z" fill="#9AAEB7"/>
<path d="M147.624 71.1898V75.0426L160.338 82.3824V78.5295L147.624 71.1898Z" fill="#465356"/>
<path d="M160.338 78.5295V82.3824L168.855 77.4642V71.3665L160.338 78.5295Z" fill="#595353"/>
<path d="M172.171 87.9163V98.2733L174.667 99.7142V89.3572L172.171 87.9163Z" fill="#A07272"/>
<path d="M168.934 92.6663V103.023L174.667 99.7141V89.3572L168.934 92.6663Z" fill="#465356"/>
<path d="M166.439 91.2265V101.583L168.934 103.023V92.6664L166.439 91.2265Z" fill="#7A8B91"/>
<path d="M168.934 92.6664L174.666 89.3573L172.171 87.9164L166.439 91.2266L168.934 92.6664Z" fill="#636060"/>
<path d="M174.667 59.8425V86.1633L181.006 89.824V63.5033L174.667 59.8425Z" fill="#A07272"/>
<path d="M166.439 71.9131V98.2348L181.006 89.824V63.5032L166.439 71.9131Z" fill="#5E6E72"/>
<path d="M160.098 68.2533V94.5731L166.439 98.2348V71.914L160.098 68.2533Z" fill="#7A8B91"/>
<path d="M166.439 71.913L181.006 63.5032L174.667 59.8424L160.098 68.2532L166.439 71.913Z" fill="#9AAEB7"/>
<path d="M191.037 50.2549L171.325 61.6348L168.707 60.9893L191.037 50.2549Z" fill="#DAE5EA"/>
<path d="M191.037 50.2549V51.0157L171.568 62.4341V61.4956L191.037 50.2549Z" fill="#9BA6AA"/>
<path d="M168.642 58.8993V64.8654L167.204 65.6954V59.7292L168.642 58.8993Z" fill="#A07272"/>
<path d="M170.506 61.635V67.6021L167.204 65.6954V59.7292L170.506 61.635Z" fill="#7A8B91"/>
<path d="M171.944 60.806V66.7722L170.506 67.6021V61.635L171.944 60.806Z" fill="#5E6E72"/>
<path d="M170.506 61.6348L167.204 59.7291L168.642 58.8991L171.944 60.8059L170.506 61.6348Z" fill="#9AAEB7"/>
<path d="M167.728 60.806L169.574 62.4947L149.863 73.8746L167.728 60.806Z" fill="#DAE5EA"/>
<path d="M169.574 62.4946V63.2554L149.863 74.8149V73.8746L169.574 62.4946Z" fill="#9BA6AA"/>
<path d="M158.072 65.2976L156.272 64.2842C156.284 64.1757 156.294 64.0661 156.306 63.9576V63.9567C156.465 63.4245 156.658 62.6416 156.732 61.6839C156.77 61.2027 156.774 60.7272 156.747 60.2584C156.689 59.1144 156.461 58.1509 156.226 57.4238L165.636 60.7099L158.072 65.2976Z" fill="#ECF2F4"/>
<path d="M147.094 71.9573C147.094 71.9573 146.874 71.8555 146.509 71.6547L148.237 70.6864L147.624 71.1898V71.6355L147.094 71.9573ZM144.845 70.6115C148.665 68.3926 152.486 66.1746 156.306 63.9566L144.845 70.6115ZM156.272 64.2842L156.228 64.2592L156.306 63.9576C156.294 64.0661 156.284 64.1756 156.272 64.2842Z" fill="#919598"/>
<path d="M146.509 71.6547C146.101 71.4299 145.511 71.0812 144.845 70.6115L156.306 63.9567C156.306 63.9567 156.306 63.9567 156.306 63.9576L156.228 64.2593L156.129 64.2035L148.237 70.6865L146.509 71.6547Z" fill="#868A8D"/>
<path d="M140.518 65.8979C138.906 62.7626 138.863 58.4621 143.878 53.1117L155.795 57.2729L140.518 65.8979ZM156.306 63.9566C156.554 63.1199 156.824 61.8452 156.749 60.2872C156.748 60.2776 156.748 60.268 156.747 60.2584C156.774 60.7271 156.77 61.2026 156.732 61.6838C156.658 62.6415 156.465 63.4244 156.306 63.9566Z" fill="#DAE2E5"/>
<path d="M144.845 70.6115C143.403 69.5942 141.604 68.0102 140.518 65.8979L155.795 57.2729L156.226 57.4237C156.461 58.1509 156.689 59.1143 156.747 60.2584C156.748 60.268 156.748 60.2776 156.749 60.2872C156.824 61.8453 156.554 63.1199 156.306 63.9566C152.486 66.1746 148.666 68.3925 144.845 70.6115Z" fill="#BCC9CE"/>
<path d="M148.002 71.4069L147.624 71.1899L148.237 70.6865L156.129 64.2036L156.228 64.2593L156.272 64.2842L158.073 65.2977L148.002 71.4069Z" fill="#BACAD1"/>
<path d="M147.624 71.6355V71.1898L148.002 71.4069L147.624 71.6355Z" fill="#909CA0"/>
<path d="M195.593 71.0236L181.006 65.9306V63.5032L177.267 61.3438L192.377 52.178C192.377 52.178 206.945 58.9136 195.593 71.0236Z" fill="#ECF2F4"/>
<path d="M181.006 65.9306L178.387 65.0152L181.006 63.5032V65.9306Z" fill="#9CAAAE"/>
<path d="M178.387 65.0151L173.835 63.4254L177.267 61.3438L181.006 63.5032L178.387 65.0151Z" fill="#BACAD1"/>
<path d="M168.934 98.2348V96.7939L174.667 93.4848V94.9179L168.934 98.2348Z" fill="#1F1523"/>
<path d="M169.573 44.2964C160.847 44.2964 152.122 46.2137 145.479 50.0493C139.473 53.517 136.165 57.9913 136.165 62.6482C136.165 67.3061 139.473 71.7814 145.48 75.2491C158.766 82.9202 180.383 82.9202 193.669 75.2491C199.675 71.7814 202.983 67.307 202.983 62.6502C202.983 57.9933 199.675 53.5179 193.668 50.0503C187.024 46.2147 178.298 44.2964 169.573 44.2964ZM169.575 85.4763C160.025 85.4763 150.479 83.3794 143.21 79.1817C135.739 74.8687 131.624 68.9967 131.624 62.6482C131.624 56.3007 135.738 50.4297 143.21 46.1167C157.746 37.7232 181.399 37.7232 195.939 46.1167C203.41 50.4306 207.524 56.3027 207.524 62.6502C207.524 68.9977 203.41 74.8687 195.939 79.1817C188.671 83.3784 179.122 85.4763 169.575 85.4763Z" fill="#586468"/>
<path d="M112.614 97.8179L104.109 104.803L116.823 112.144L125.34 104.981L112.614 97.8179Z" fill="#9AAEB7"/>
<path d="M104.109 104.803V108.656L116.823 115.997V112.144L104.109 104.803Z" fill="#465356"/>
<path d="M116.823 112.144V115.997L125.34 111.078V104.981L116.823 112.144Z" fill="#595353"/>
<path d="M128.656 121.531V131.888L131.15 133.328V122.972L128.656 121.531Z" fill="#A07272"/>
<path d="M125.419 126.281V136.638L131.15 133.327V122.972L125.419 126.281Z" fill="#465356"/>
<path d="M122.924 124.84V135.197L125.419 136.638V126.281L122.924 124.84Z" fill="#7A8B91"/>
<path d="M125.419 126.281L131.151 122.971L128.656 121.531L122.924 124.84L125.419 126.281Z" fill="#636060"/>
<path d="M131.15 93.4559V119.777L137.491 123.437V97.1167L131.15 93.4559Z" fill="#A07272"/>
<path d="M122.924 105.527V131.848L137.491 123.437V97.1166L122.924 105.527Z" fill="#5E6E72"/>
<path d="M116.583 101.867V128.187L122.924 131.848V105.527L116.583 101.867Z" fill="#7A8B91"/>
<path d="M122.924 105.528L137.491 97.1167L131.151 93.456L116.583 101.867L122.924 105.528Z" fill="#9AAEB7"/>
<path d="M104.918 83.8694L124.629 95.2493L127.249 94.6038L104.918 83.8694Z" fill="#DAE5EA"/>
<path d="M104.918 83.8694V84.6292L124.387 96.0476V95.1091L104.918 83.8694Z" fill="#9BA6AA"/>
<path d="M127.314 92.5126V98.4798L128.751 99.3097V93.3426L127.314 92.5126Z" fill="#A07272"/>
<path d="M125.448 95.2493V101.216L128.751 99.3097V93.3426L125.448 95.2493Z" fill="#7A8B91"/>
<path d="M124.011 94.4194V100.387L125.448 101.215V95.2493L124.011 94.4194Z" fill="#5E6E72"/>
<path d="M125.448 95.2493L128.751 93.3426L127.314 92.5126L124.011 94.4194L125.448 95.2493Z" fill="#9AAEB7"/>
<path d="M128.226 94.4194L126.381 96.1081L146.092 107.489L128.226 94.4194Z" fill="#DAE5EA"/>
<path d="M126.381 96.1081V96.8688L146.092 108.429V107.489L126.381 96.1081Z" fill="#9BA6AA"/>
<mask id="mask1_1_3647" style="mask-type:luminance" maskUnits="userSpaceOnUse" x="137" y="86" width="20" height="20">
<path d="M148.86 105.572L137.491 98.6747V98.4422C141.852 95.7958 146.21 93.1466 150.566 90.4963C150.962 89.3215 151.352 88.1045 151.733 86.8461L152.077 86.7261C163.43 98.836 148.86 105.572 148.86 105.572Z" fill="white"/>
</mask>
<g mask="url(#mask1_1_3647)">
<path d="M137.491 105.572H163.43V86.7259H137.491V105.572Z" fill="#ECF2F4"/>
</g>
<path d="M137.491 98.4422V97.1166L131.774 93.8151L151.733 86.8461C151.352 88.1045 150.962 89.3215 150.567 90.4963C146.21 93.1465 141.852 95.7958 137.491 98.4422Z" fill="#919598"/>
<path d="M137.491 98.6747L136.176 97.8765L137.491 97.1166V98.6747Z" fill="#9CAAAE"/>
<path d="M136.176 97.8765L130.32 94.3233L131.774 93.8152L137.491 97.1167L136.176 97.8765Z" fill="#BACAD1"/>
<path d="M104.164 98.8966L105.502 98.1243C108.646 96.3089 111.789 94.4943 114.933 92.6788L104.164 98.8966Z" fill="#ECF2F4"/>
<path d="M100.362 104.637C100.262 104.53 100.164 104.424 100.067 104.317C105.863 100.994 112.861 96.9602 117.539 94.26L122.121 97.0399L115.401 99.3866L112.614 97.8179L107.231 102.238L100.362 104.637Z" fill="#919598"/>
<path d="M98.3956 102.245C98.3927 102.24 98.3898 102.237 98.387 102.232L102.411 99.9081C102.411 99.9149 102.411 99.9206 102.411 99.9274L98.3956 102.245ZM104.164 98.9159V98.8967L114.933 92.6788L114.948 92.6884L104.164 98.9159Z" fill="#C6C8CE"/>
<path d="M102.411 99.9274C102.411 99.9206 102.411 99.9149 102.411 99.9082L104.164 98.8967V98.9159L102.411 99.9274Z" fill="#808386"/>
<path d="M100.067 104.317C99.4246 103.608 98.8694 102.917 98.3958 102.245L102.411 99.9273L104.164 98.9158L114.948 92.6884L117.539 94.2599C112.861 96.9601 105.863 100.994 100.067 104.317Z" fill="#868A8D"/>
<path d="M105.502 98.1243L114.933 92.6788C111.789 94.4943 108.646 96.3088 105.502 98.1243ZM104.229 90.3158C105.391 89.6443 106.552 88.9729 107.714 88.3005L104.229 90.3158Z" fill="#DAE2E5"/>
<path d="M98.3871 102.232C96.4736 99.5143 95.8847 97.1071 96.0653 95.0332C98.7867 93.4607 101.507 91.8883 104.228 90.3158L107.714 88.3005L114.933 92.6788L105.502 98.1243L104.164 98.8966L102.411 99.9081L98.3871 102.232Z" fill="#BCC9CE"/>
<path d="M96.0654 95.0333C96.5899 89.023 103.579 85.7916 103.579 85.7916L107.714 88.3006C106.552 88.973 105.391 89.6445 104.228 90.3159C101.507 91.8884 98.7867 93.4609 96.0654 95.0333Z" fill="#DDE6EA"/>
<path d="M107.231 102.238L112.614 97.8178L115.401 99.3865L107.231 102.238Z" fill="#BACAD1"/>
<path d="M125.419 131.848V130.407L130.593 127.42L131.15 127.098V128.532L125.419 131.848Z" fill="#1F1523"/>
<path d="M126.057 77.9099C117.332 77.9099 108.607 79.8282 101.964 83.6628C95.9577 87.1305 92.6495 91.6058 92.6495 96.2627C92.6495 100.92 95.9578 105.395 101.965 108.863C115.251 116.534 136.868 116.534 150.153 108.864C156.16 105.395 159.468 100.921 159.468 96.2637C159.468 91.6068 156.16 87.1315 150.153 83.6638C143.509 79.8282 134.783 77.9099 126.057 77.9099ZM126.059 119.091C116.51 119.091 106.964 116.993 99.6944 112.795C92.223 108.482 88.1089 102.61 88.1089 96.2627C88.1089 89.9152 92.223 84.0442 99.6944 79.7302C114.231 71.3377 137.884 71.3367 152.423 79.7312C159.895 84.0442 164.009 89.9162 164.009 96.2637C164.009 102.611 159.895 108.482 152.423 112.796C145.156 116.992 135.606 119.091 126.059 119.091Z" fill="#586468"/>
<path d="M129.264 101.867L127.314 100.954L126.199 101.6L125.448 101.217L128.751 99.3098L129.477 99.7757L128.568 100.263L130.391 101.216L129.264 101.867Z" fill="#6B757F"/>
<path d="M125.448 101.216V101.215L128.751 99.3097L125.448 101.216Z" fill="#555D65"/>
<path d="M98.8185 28.7947L98.0683 28.4114L101.371 26.5047L102.096 26.9706L101.187 27.4576L102.352 28.0676L101.191 28.738L99.9328 28.1492L98.8185 28.7947Z" fill="#6B757F"/>
<path d="M40.4595 51.2943L38.8832 50.2415L40.3202 49.4116L41.9359 50.4413L40.8504 51.0686L40.4595 51.2943Z" fill="#6B757F"/>
<path d="M172.084 68.6548L170.506 67.602L171.944 66.7721L173.56 67.8028L172.084 68.6548Z" fill="#6B757F"/>
</svg>
