<svg width="150" height="153" viewBox="0 0 150 153" fill="none" xmlns="http://www.w3.org/2000/svg">
<path d="M29.3083 55.9794V64.1966L31.1114 65.3398V57.1226L29.3083 55.9794Z" fill="#A07272"/>
<path d="M26.9686 59.748V67.9653L31.1115 65.339V57.1225L26.9686 59.748Z" fill="#465356"/>
<path d="M25.1647 58.6049V66.8221L26.9685 67.9653V59.748L25.1647 58.6049Z" fill="#7A8B91"/>
<path d="M26.9685 59.748L31.1115 57.1225L29.3083 55.9793L25.1647 58.6049L26.9685 59.748Z" fill="#636060"/>
<path d="M31.1115 33.7045V54.5875L35.6946 57.492V36.609L31.1115 33.7045Z" fill="#A07272"/>
<path d="M25.1647 43.2823V64.1653L35.6946 57.4921V36.6091L25.1647 43.2823Z" fill="#5E6E72"/>
<path d="M20.5815 40.3778V61.2608L25.1647 64.1653V43.2823L20.5815 40.3778Z" fill="#7A8B91"/>
<path d="M25.1647 43.2822L35.6947 36.609L31.1115 33.7046L20.5815 40.3778L25.1647 43.2822Z" fill="#9AAEB7"/>
<path d="M33.4034 47.1752L27.2559 52.7182L36.4451 58.5416L42.6016 52.8584L33.4034 47.1752Z" fill="#9AAEB7"/>
<path d="M27.2559 52.7182V55.7751L36.4451 61.5992V58.5416L27.2559 52.7182Z" fill="#465356"/>
<path d="M36.4452 58.5416V61.5992L42.6017 57.6964V52.8584L36.4452 58.5416Z" fill="#595353"/>
<path d="M42.9447 26.0986L28.6974 35.1276L26.804 34.6154L42.9447 26.0986Z" fill="#DAE5EA"/>
<path d="M42.9446 26.0985V26.7021L28.8723 35.7607V35.0169L42.9446 26.0985Z" fill="#9BA6AA"/>
<path d="M26.7567 32.9562V37.6905L25.718 38.349V33.6147L26.7567 32.9562Z" fill="#A07272"/>
<path d="M28.1051 35.1276V39.8619L25.718 38.3491V33.6148L28.1051 35.1276Z" fill="#7A8B91"/>
<path d="M29.1438 34.4691V39.2034L28.1051 39.8619V35.1276L29.1438 34.4691Z" fill="#5E6E72"/>
<path d="M28.1051 35.1276L25.718 33.6147L26.7567 32.9562L29.1438 34.4691L28.1051 35.1276Z" fill="#9AAEB7"/>
<path d="M26.0971 34.469L27.4309 35.8096L13.1836 44.8385L26.0971 34.469Z" fill="#DAE5EA"/>
<path d="M27.4309 35.8097V36.4125L13.1836 45.5847V44.8386L27.4309 35.8097Z" fill="#9BA6AA"/>
<path d="M11.1827 43.3173C11.1827 43.3173 0.652018 37.9732 8.8574 28.3651L24.5843 34.3928L11.1827 43.3173Z" fill="#ECF2F4"/>
<path d="M46.2379 42.5758L35.6947 38.535V36.6091L32.9918 34.8959L43.9126 27.6245C43.9126 27.6245 54.4432 32.9677 46.2379 42.5758Z" fill="#ECF2F4"/>
<path d="M35.6947 38.535L33.8013 37.8095L35.6947 36.6091V38.535Z" fill="#9CAAAE"/>
<path d="M33.8012 37.8094L30.5109 36.5481L32.9916 34.8958L35.6946 36.6091L33.8012 37.8094Z" fill="#BACAD1"/>
<path d="M26.9686 64.1653V63.0221L31.1115 60.3966V61.5344L26.9686 64.1653Z" fill="#31383C"/>
<path d="M27.4303 21.3712C21.1231 21.3712 14.8167 22.8924 10.0155 25.9356C5.67329 28.6868 3.28277 32.2368 3.28277 35.9316C3.28277 39.6264 5.67399 43.1771 10.0162 45.9291C19.6186 52.0147 35.2441 52.0147 44.8471 45.9291C49.1886 43.1779 51.5798 39.6271 51.5798 35.9323C51.5798 32.2376 49.1879 28.6876 44.8464 25.9356C40.0445 22.8924 33.7374 21.3712 27.4303 21.3712ZM27.4316 54.0435C20.5295 54.0435 13.6294 52.379 8.37486 49.0493C2.9745 45.6266 6.10352e-05 40.9685 6.10352e-05 35.9316C6.10352e-05 30.8955 2.9745 26.2374 8.37417 22.8154C18.8812 16.156 35.9786 16.156 46.487 22.8154C51.8874 26.2381 54.8619 30.8962 54.8619 35.9323C54.8619 40.9685 51.8881 45.6266 46.4878 49.0493C41.2346 52.3783 34.3317 54.0435 27.4316 54.0435Z" fill="#586468"/>
<path d="M31.8509 59.9286L27.2559 56.9792V55.7751L32.3411 58.9981L31.5634 59.4805C31.6815 59.6169 31.7995 59.7526 31.9161 59.8867L31.8509 59.9286Z" fill="#424A4F"/>
<path d="M73.0861 38.1586V46.3758L74.8892 47.519V39.3018L73.0861 38.1586Z" fill="#A07272"/>
<path d="M70.7463 41.9272V50.1444L74.8893 47.5189V39.3017L70.7463 41.9272Z" fill="#465356"/>
<path d="M68.9424 40.7847V49.002L70.7462 50.1444V41.9272L68.9424 40.7847Z" fill="#7A8B91"/>
<path d="M70.7462 41.9271L74.8892 39.3016L73.086 38.1584L68.9424 40.7847L70.7462 41.9271Z" fill="#636060"/>
<path d="M74.8892 15.8839V36.7669L79.4724 39.6714V18.7884L74.8892 15.8839Z" fill="#A07272"/>
<path d="M68.9424 25.4614V46.3444L79.4723 39.6713V18.7883L68.9424 25.4614Z" fill="#5E6E72"/>
<path d="M64.3593 22.557V43.44L68.9425 46.3444V25.4614L64.3593 22.557Z" fill="#7A8B91"/>
<path d="M68.9425 25.4614L79.4724 18.7882L74.8893 15.8838L64.3593 22.557L68.9425 25.4614Z" fill="#9AAEB7"/>
<path d="M77.1804 29.3552L71.0337 34.8974L80.2229 40.7216L86.3794 35.0384L77.1804 29.3552Z" fill="#9AAEB7"/>
<path d="M71.0337 34.8974V37.9543L80.2229 43.7784V40.7216L71.0337 34.8974Z" fill="#465356"/>
<path d="M80.223 40.7216V43.7784L86.3794 39.8756V35.0384L80.223 40.7216Z" fill="#595353"/>
<path d="M56.0449 8.77848L70.2922 17.8074L72.1849 17.2952L56.0449 8.77848Z" fill="#DAE5EA"/>
<path d="M56.0449 8.77856V9.38139L70.1172 18.4408V17.6962L56.0449 8.77856Z" fill="#9BA6AA"/>
<path d="M72.2321 15.6361V20.3705L73.2714 21.0289V16.2946L72.2321 15.6361Z" fill="#A07272"/>
<path d="M70.8846 17.8074V22.5417L73.2716 21.0289V16.2946L70.8846 17.8074Z" fill="#7A8B91"/>
<path d="M69.845 17.149V21.8833L70.8844 22.5417V17.8074L69.845 17.149Z" fill="#5E6E72"/>
<path d="M70.8844 17.8074L73.2714 16.2946L72.232 15.6361L69.845 17.1489L70.8844 17.8074Z" fill="#9AAEB7"/>
<path d="M72.8917 17.149L71.5579 18.4888L85.8052 27.5184L72.8917 17.149Z" fill="#DAE5EA"/>
<path d="M71.5579 18.4888V19.0925L85.8052 28.2646V27.5185L71.5579 18.4888Z" fill="#9BA6AA"/>
<mask id="mask0_221_2" style="mask-type:luminance" maskUnits="userSpaceOnUse" x="75" y="11" width="19" height="15">
<path d="M87.8071 25.9973L79.4725 20.4475V18.7884L75.8753 16.5089L90.1316 11.0452C98.337 20.6533 87.8071 25.9973 87.8071 25.9973Z" fill="white"/>
</mask>
<g mask="url(#mask0_221_2)">
<path d="M75.8753 25.9973H98.337V11.0452H75.8753V25.9973Z" fill="#ECF2F4"/>
</g>
<path d="M79.4725 20.4474L78.1964 19.5976L79.4725 18.7882V20.4474Z" fill="#9CAAAE"/>
<path d="M78.1962 19.5977L74.4045 17.0728L75.8751 16.5088L79.4723 18.7883L78.1962 19.5977Z" fill="#BACAD1"/>
<path d="M52.7517 25.2556C44.5463 15.6475 55.0763 10.3035 55.0763 10.3035L68.4786 19.2279L52.7517 25.2556Z" fill="#ECF2F4"/>
<path d="M71.208 3.55033C64.9009 3.55033 58.5945 5.07152 53.7933 8.11469C49.4511 10.866 47.0605 14.416 47.0605 18.1107C47.0605 21.8063 49.4518 25.357 53.7933 28.1083C63.3963 34.1939 79.0218 34.1939 88.6242 28.1083C92.9664 25.357 95.3576 21.8063 95.3576 18.1115C95.3576 14.4167 92.9657 10.8667 88.6242 8.11469C83.8223 5.07152 77.5145 3.55033 71.208 3.55033ZM71.2094 36.2227C64.3073 36.2227 57.4072 34.5582 52.1526 31.2284C46.7523 27.8057 43.7778 23.1476 43.7778 18.1107C43.7778 13.0746 46.7523 8.4165 52.1519 4.99456C62.659 -1.66489 79.7564 -1.66489 90.2648 4.99456C95.6652 8.41727 98.6396 13.0754 98.6396 18.1115C98.6396 23.1476 95.6652 27.8065 90.2655 31.2284C85.0124 34.5582 78.1095 36.2227 71.2094 36.2227Z" fill="#586468"/>
<path d="M74.131 41.1466L71.0337 39.159V37.9541L75.1301 40.5506L74.131 41.1466Z" fill="#424A4F"/>
<path d="M63.8401 44.8187V53.0359L65.6432 54.1783V45.9611L63.8401 44.8187Z" fill="#A07272"/>
<path d="M61.5002 48.5874V56.8046L65.6432 54.1784V45.9611L61.5002 48.5874Z" fill="#474545"/>
<path d="M59.6963 47.4442V55.6614L61.5001 56.8046V48.5874L59.6963 47.4442Z" fill="#202020"/>
<path d="M61.5001 48.5875L65.6431 45.9612L63.84 44.8188L59.6963 47.4443L61.5001 48.5875Z" fill="#636060"/>
<path d="M31.5782 64.464C31.9122 66.1559 32.6558 68.863 34.4471 71.6447C35.7482 73.6651 37.1723 75.0583 38.2589 75.9591C51.4862 67.5765 64.7136 59.1939 77.9409 50.8105L86.3469 33.8654L68.8419 44.2989L58.9292 47.102L31.5782 64.464Z" fill="#3F2E2E"/>
<path d="M38.2588 64.2506V75.9592C39.98 78.2349 42.0192 80.5876 44.4305 82.8785C53.9641 91.9364 64.426 95.3835 71.1629 96.8254C71.1699 92.9226 71.1768 89.0197 71.1831 85.1169L38.2588 64.2506Z" fill="#202020"/>
<path d="M64.4823 85.3295C64.7121 86.8134 65.2815 89.3375 66.8589 91.9852C68.3316 94.459 70.059 95.9901 71.163 96.8254C77.2861 92.7786 83.4072 88.724 89.5241 84.6604C95.9659 80.381 102.401 76.0949 108.831 71.8003C109.683 69.0246 110.499 65.9487 111.201 62.593C112.098 58.303 112.65 54.3179 112.979 50.7435C105.606 55.3841 98.2328 60.0247 90.8592 64.6645L88.023 70.4109L64.4823 85.3295Z" fill="#474545"/>
<path d="M64.9044 87.3347C64.8322 87.0687 64.7635 86.7874 64.6989 86.4902C64.7572 86.7562 64.8253 87.039 64.9044 87.3347Z" fill="#161516"/>
<path d="M69.164 82.3625C69.1612 82.3595 69.1585 82.3557 69.1564 82.3527L71.115 81.1111C71.1171 81.115 71.1192 81.118 71.1213 81.1218L69.164 82.3625ZM83.0857 73.5394L83.0746 73.5318L88.0271 70.3934C88.0292 70.3918 88.0313 70.3903 88.0333 70.3888L88.0229 70.4109L83.0857 73.5394Z" fill="#B2ABB1"/>
<path d="M64.4906 85.3242C64.4899 85.3196 64.4892 85.315 64.4885 85.3104L66.2778 84.1772C66.2798 84.1802 66.2826 84.184 66.2847 84.1871L64.4906 85.3242Z" fill="#161516"/>
<path d="M64.9155 87.3696C64.9148 87.3696 64.9141 87.3689 64.9141 87.3689C64.9106 87.3575 64.9078 87.346 64.9044 87.3346C64.8252 87.0389 64.7572 86.7561 64.6988 86.4901C64.6926 86.4604 64.6863 86.43 64.6801 86.3995C64.6009 86.023 64.5391 85.6632 64.4905 85.3241L66.2846 84.187C66.6672 84.7251 67.0907 85.2509 67.5539 85.7615C65.9694 86.7493 64.9578 87.3696 64.9155 87.3696ZM70.5318 83.8966C70.0235 83.3997 69.5667 82.8876 69.164 82.3625L71.1212 81.1217C71.4635 81.6545 71.8648 82.2032 72.3293 82.7656C71.7086 83.1574 71.1067 83.5354 70.5318 83.8966ZM84.9582 74.7862L83.0856 73.5393L88.0229 70.4108L88.0333 70.3887C88.9901 69.7767 89.5851 68.017 90.2523 66.4836L91.3736 64.5135C92.6699 63.6873 93.9655 62.8612 95.2618 62.0351C95.8728 62.1006 96.481 62.1814 97.0843 62.2759L92.6164 65.0257L88.7311 72.3954C88.7311 72.3954 87.2196 73.3542 84.9582 74.7862ZM103.346 58.4226C102.983 58.1345 102.639 57.8411 102.315 57.5408L104.695 56.0234C105.177 56.3961 105.603 56.6728 105.898 56.8511L103.346 58.4226Z" fill="#322E30"/>
<path d="M52.4449 86.1571C51.4847 85.5489 50.7063 84.0689 50.7063 82.851C50.7063 81.6339 51.4847 81.1408 52.4449 81.749C53.4058 82.3579 54.1842 83.838 54.1842 85.0551C54.1842 86.2729 53.4058 86.7661 52.4449 86.1571ZM52.4449 80.8992C51.1146 80.0555 50.0356 80.7392 50.0356 82.4265C50.0356 84.1131 51.1146 86.164 52.4449 87.0076C53.7759 87.8505 54.8549 87.1669 54.8549 85.4803C54.8549 83.7938 53.7759 81.7429 52.4449 80.8992Z" fill="#687D8C"/>
<path d="M52.4449 85.3379C51.8416 84.956 51.3528 84.0255 51.3528 83.2611C51.3528 83.1681 51.3604 83.082 51.3743 83.0035C51.4638 83.1132 51.5631 83.2077 51.6687 83.2748C52.0533 83.5187 52.3651 83.3205 52.3651 82.8328C52.3651 82.7276 52.3484 82.6171 52.3213 82.5058C52.3623 82.5264 52.4026 82.5416 52.4449 82.5691C53.0483 82.9509 53.5378 83.8807 53.5378 84.6459C53.5378 85.4103 53.0483 85.7205 52.4449 85.3379ZM52.4449 81.749C51.4847 81.1408 50.7064 81.6339 50.7064 82.8511C50.7064 84.0689 51.4847 85.549 52.4449 86.1572C53.4058 86.7661 54.1842 86.273 54.1842 85.0551C54.1842 83.838 53.4058 82.3579 52.4449 81.749Z" fill="#445768"/>
<path d="M52.4449 82.5691C52.4026 82.5417 52.3623 82.5265 52.3213 82.5059C52.3484 82.6171 52.3651 82.7277 52.3651 82.8328C52.3651 83.3206 52.0533 83.5188 51.6687 83.2749C51.5632 83.2078 51.4639 83.1133 51.3743 83.0036C51.3604 83.0821 51.3528 83.1682 51.3528 83.2612C51.3528 84.0256 51.8416 84.9561 52.4449 85.3379C53.0483 85.7205 53.5378 85.4103 53.5378 84.6459C53.5378 83.8808 53.0483 82.951 52.4449 82.5691Z" fill="#151D26"/>
<path d="M86.3469 33.8654L68.8419 44.2989L60.508 46.0724L31.5635 64.445C34.4803 68.1123 39.0642 73.0425 45.622 77.3554C52.9949 82.2048 59.8859 84.3174 64.4885 85.3104C72.335 80.3383 80.1814 75.3654 88.0271 70.3933C89.6303 69.3774 90.2198 65.1362 91.8229 64.1203C99.5465 59.2259 105.256 55.6379 112.979 50.7435C113.095 50.3213 113.234 49.7001 113.288 48.9403C113.703 43.0574 108.336 38.3536 106.936 37.1266C101.477 32.3427 93.3615 30.317 87.2363 33.3769C86.8627 33.5636 86.5586 33.7382 86.3469 33.8654Z" fill="#DADEE0"/>
<path d="M64.4885 85.3104L88.0271 70.3933V63.6066L62.6472 79.7065L64.4885 85.3104Z" fill="#9EACB2"/>
<path d="M88.0272 70.3932C88.2445 70.2279 88.5812 69.9459 88.9312 69.532C89.5838 68.7585 89.8032 68.0856 90.5517 66.3532C90.7308 65.9394 91.0113 65.3 91.3737 64.5135C91.3272 62.5708 91.2814 60.6281 91.2356 58.6855L88.0272 63.6065V70.3932Z" fill="#7A8589"/>
<path d="M91.2355 58.6855L112.84 45.298C113.037 45.9016 113.252 46.7689 113.299 47.8321C113.353 49.0683 113.158 50.0796 112.979 50.7434C105.777 55.3337 98.5757 59.9232 91.3736 64.5135L91.2355 58.6855Z" fill="#9EACB2"/>
<path d="M62.6465 79.7065L31.5635 59.4805V64.4449C31.5635 64.4449 42.2205 80.1371 64.4885 85.3104L62.6465 79.7065Z" fill="#CFDEE2"/>
<path d="M31.5635 59.4805C34.7983 63.2309 37.7783 66.0012 39.9862 67.8921C43.8043 71.1616 48.2458 74.9036 54.8237 77.4994C58.0398 78.7684 60.8073 79.3849 62.6472 79.7065C71.1067 74.3404 79.5669 68.9735 88.0271 63.6066L56.8775 43.7594L31.5635 59.4805Z" fill="#E1E7EA"/>
<path d="M56.8774 43.7594L68.8418 44.299L91.2355 58.6857L88.0271 63.6067L56.8774 43.7594Z" fill="#A3B3B7"/>
<path d="M112.851 50.9394L106.704 56.4823L115.893 62.3057L122.05 56.6226L112.851 50.9394Z" fill="#9AAEB7"/>
<path d="M106.704 56.4823V59.5391L115.893 65.3625V62.3057L106.704 56.4823Z" fill="#465356"/>
<path d="M115.893 62.3057V65.3625L122.05 61.4605V56.6225L115.893 62.3057Z" fill="#595353"/>
<path d="M124.447 69.7532V77.9705L126.25 79.1136V70.8964L124.447 69.7532Z" fill="#A07272"/>
<path d="M122.107 73.5219V81.7391L126.25 79.1136V70.8964L122.107 73.5219Z" fill="#465356"/>
<path d="M120.304 72.3795V80.5967L122.107 81.7391V73.5219L120.304 72.3795Z" fill="#7A8B91"/>
<path d="M122.107 73.522L126.25 70.8965L124.447 69.7533L120.304 72.3796L122.107 73.522Z" fill="#636060"/>
<path d="M126.25 47.4793V68.3623L130.833 71.2668V50.3838L126.25 47.4793Z" fill="#A07272"/>
<path d="M120.304 57.0562V77.9399L130.833 71.2668V50.3837L120.304 57.0562Z" fill="#5E6E72"/>
<path d="M115.72 54.1525V75.0347L120.304 77.9399V57.0569L115.72 54.1525Z" fill="#7A8B91"/>
<path d="M120.304 57.0561L130.833 50.3837L126.25 47.4792L115.72 54.1524L120.304 57.0561Z" fill="#9AAEB7"/>
<path d="M138.083 39.8725L123.835 48.9014L121.943 48.3892L138.083 39.8725Z" fill="#DAE5EA"/>
<path d="M138.083 39.8725V40.4761L124.011 49.5355V48.7908L138.083 39.8725Z" fill="#9BA6AA"/>
<path d="M121.896 46.7309V51.4645L120.856 52.123V47.3894L121.896 46.7309Z" fill="#A07272"/>
<path d="M123.243 48.9015V53.6358L120.856 52.123V47.3894L123.243 48.9015Z" fill="#7A8B91"/>
<path d="M124.283 48.2438V52.9773L123.243 53.6358V48.9015L124.283 48.2438Z" fill="#5E6E72"/>
<path d="M123.243 48.9014L120.856 47.3893L121.896 46.7309L124.283 48.2437L123.243 48.9014Z" fill="#9AAEB7"/>
<path d="M121.235 48.2437L122.569 49.5835L108.323 58.6124L121.235 48.2437Z" fill="#DAE5EA"/>
<path d="M122.569 49.5835V50.1871L108.323 59.3585V58.6124L122.569 49.5835Z" fill="#9BA6AA"/>
<path d="M114.256 51.8074L112.955 51.0033C112.963 50.9172 112.971 50.8303 112.979 50.7442V50.7435C113.094 50.3212 113.234 49.7001 113.287 48.9403C113.314 48.5584 113.317 48.1812 113.298 47.8093C113.256 46.9016 113.091 46.1372 112.922 45.5602L119.723 48.1675L114.256 51.8074Z" fill="#ECF2F4"/>
<path d="M106.321 57.0912C106.321 57.0912 106.162 57.0104 105.898 56.8511L107.147 56.0829L106.704 56.4823V56.8359L106.321 57.0912ZM104.695 56.0234C107.457 54.2629 110.218 52.5032 112.979 50.7435L104.695 56.0234ZM112.955 51.0033L112.923 50.9835L112.979 50.7442C112.971 50.8303 112.963 50.9172 112.955 51.0033Z" fill="#919598"/>
<path d="M105.898 56.8512C105.603 56.6729 105.177 56.3962 104.695 56.0235L112.979 50.7435C112.979 50.7435 112.979 50.7435 112.979 50.7443L112.923 50.9836L112.851 50.9394L107.147 56.083L105.898 56.8512Z" fill="#868A8D"/>
<path d="M101.568 52.2837C100.402 49.7961 100.371 46.3841 103.996 42.1391L112.61 45.4406L101.568 52.2837ZM112.979 50.7435C113.158 50.0796 113.353 49.0683 113.299 47.8321C113.299 47.8245 113.299 47.8169 113.298 47.8093C113.317 48.1812 113.315 48.5584 113.288 48.9403C113.234 49.7001 113.094 50.3212 112.979 50.7435Z" fill="#DAE2E5"/>
<path d="M104.695 56.0234C103.653 55.2163 102.353 53.9596 101.568 52.2837L112.61 45.4406L112.922 45.5602C113.091 46.1372 113.256 46.9016 113.298 47.8093C113.299 47.8169 113.299 47.8245 113.299 47.8321C113.354 49.0683 113.158 50.0796 112.979 50.7435C110.218 52.5032 107.457 54.2629 104.695 56.0234Z" fill="#BCC9CE"/>
<path d="M106.977 56.6545L106.704 56.4823L107.147 56.0829L112.851 50.9394L112.923 50.9836L112.955 51.0034L114.256 51.8074L106.977 56.6545Z" fill="#BACAD1"/>
<path d="M106.704 56.8359V56.4823L106.977 56.6545L106.704 56.8359Z" fill="#909CA0"/>
<path d="M141.376 56.3504L130.833 52.3096V50.3837L128.13 48.6705L139.051 41.3982C139.051 41.3982 149.581 46.7423 141.376 56.3504Z" fill="#ECF2F4"/>
<path d="M130.833 52.3096L128.939 51.5833L130.833 50.3837V52.3096Z" fill="#9CAAAE"/>
<path d="M128.939 51.5833L125.649 50.322L128.13 48.6705L130.833 50.3837L128.939 51.5833Z" fill="#BACAD1"/>
<path d="M122.107 77.9399V76.7968L126.25 74.1712V75.3083L122.107 77.9399Z" fill="#1F1523"/>
<path d="M122.568 35.1449C116.261 35.1449 109.955 36.6662 105.154 39.7093C100.812 42.4606 98.421 46.0106 98.421 49.7053C98.421 53.4009 100.812 56.9516 105.154 59.7029C114.757 65.7893 130.382 65.7893 139.985 59.7029C144.327 56.9516 146.718 53.4017 146.718 49.7069C146.718 46.0121 144.327 42.4613 139.985 39.7101C135.183 36.6669 128.876 35.1449 122.568 35.1449ZM122.57 67.8173C115.668 67.8173 108.768 66.1536 103.513 62.8231C98.1134 59.4011 95.1389 54.7422 95.1389 49.7053C95.1389 44.6692 98.1127 40.0111 103.513 36.5892C114.02 29.9297 131.117 29.9297 141.626 36.5892C147.026 40.0119 150 44.6708 150 49.7069C150 54.743 147.026 59.4011 141.627 62.8231C136.373 66.1528 129.471 67.8173 122.57 67.8173Z" fill="#586468"/>
<path d="M81.3985 77.6091L75.251 83.1513L84.4403 88.9755L90.5967 83.2923L81.3985 77.6091Z" fill="#9AAEB7"/>
<path d="M75.251 83.1513V86.2082L84.4403 92.0323V88.9755L75.251 83.1513Z" fill="#465356"/>
<path d="M84.4403 88.9755V92.0323L90.5968 88.1295V83.2923L84.4403 88.9755Z" fill="#595353"/>
<path d="M92.9934 96.423V104.64L94.7966 105.783V97.5662L92.9934 96.423Z" fill="#A07272"/>
<path d="M90.6536 100.192V108.409L94.7965 105.783V97.5661L90.6536 100.192Z" fill="#465356"/>
<path d="M88.8506 99.0485V107.266L90.6537 108.409V100.192L88.8506 99.0485Z" fill="#7A8B91"/>
<path d="M90.6537 100.192L94.7967 97.5655L92.9935 96.4231L88.8506 99.0486L90.6537 100.192Z" fill="#636060"/>
<path d="M94.7966 74.1483V95.0313L99.3797 97.9358V77.0528L94.7966 74.1483Z" fill="#A07272"/>
<path d="M88.8506 83.726V104.609L99.3798 97.9358V77.0528L88.8506 83.726Z" fill="#5E6E72"/>
<path d="M84.2675 80.8215V101.705L88.8506 104.609V83.726L84.2675 80.8215Z" fill="#7A8B91"/>
<path d="M88.8506 83.726L99.3799 77.0528L94.7967 74.1484L84.2675 80.8215L88.8506 83.726Z" fill="#9AAEB7"/>
<path d="M75.8356 66.5423L90.0829 75.5712L91.9763 75.0591L75.8356 66.5423Z" fill="#DAE5EA"/>
<path d="M75.8356 66.5424V67.1452L89.9079 76.2046V75.46L75.8356 66.5424Z" fill="#9BA6AA"/>
<path d="M92.0235 73.3999V78.1343L93.0622 78.7927V74.0584L92.0235 73.3999Z" fill="#A07272"/>
<path d="M90.6751 75.5712V80.3055L93.0621 78.7927V74.0584L90.6751 75.5712Z" fill="#7A8B91"/>
<path d="M89.6364 74.9128V79.6471L90.6751 80.3048V75.5713L89.6364 74.9128Z" fill="#5E6E72"/>
<path d="M90.6751 75.5712L93.0622 74.0584L92.0235 73.3999L89.6364 74.9127L90.6751 75.5712Z" fill="#9AAEB7"/>
<path d="M92.6831 74.9127L91.3494 76.2526L105.597 85.2822L92.6831 74.9127Z" fill="#DAE5EA"/>
<path d="M91.3494 76.2525V76.8561L105.597 86.0283V85.2822L91.3494 76.2525Z" fill="#9BA6AA"/>
<mask id="mask1_221_2" style="mask-type:luminance" maskUnits="userSpaceOnUse" x="99" y="68" width="15" height="16">
<path d="M107.598 83.761L99.3797 78.2889V78.1045C102.532 76.0048 105.682 73.9029 108.831 71.8002C109.117 70.8681 109.399 69.9025 109.674 68.9041L109.923 68.8089C118.128 78.417 107.598 83.761 107.598 83.761Z" fill="white"/>
</mask>
<g mask="url(#mask1_221_2)">
<path d="M99.3797 83.761H118.128V68.8087H99.3797V83.761Z" fill="#ECF2F4"/>
</g>
<path d="M99.3798 78.1045V77.0528L95.2473 74.4333L109.674 68.9041C109.399 69.9025 109.117 70.8681 108.831 71.8002C105.682 73.9029 102.532 76.0048 99.3798 78.1045Z" fill="#919598"/>
<path d="M99.3797 78.2889L98.4292 77.6556L99.3797 77.0528V78.2889Z" fill="#9CAAAE"/>
<path d="M98.4292 77.6556L94.196 74.8365L95.2472 74.4334L99.3797 77.0528L98.4292 77.6556Z" fill="#BACAD1"/>
<path d="M75.2905 78.465L76.2576 77.8523C78.5301 76.4118 80.8019 74.9722 83.0744 73.5317L75.2905 78.465Z" fill="#ECF2F4"/>
<path d="M72.5426 83.0195C72.4704 82.9349 72.3996 82.8503 72.3295 82.7657C76.5189 80.1288 81.577 76.9286 84.9583 74.7863L88.2702 76.9919L83.4128 78.8537L81.3986 77.6092L77.5077 81.1165L72.5426 83.0195Z" fill="#919598"/>
<path d="M71.1211 81.1218C71.119 81.118 71.117 81.1149 71.1149 81.1111L74.0233 79.2676C74.0233 79.2729 74.0233 79.2775 74.0233 79.2828L71.1211 81.1218ZM75.2905 78.4803V78.465L83.0744 73.5318L83.0855 73.5394L75.2905 78.4803Z" fill="#C6C8CE"/>
<path d="M74.0236 79.2828C74.0236 79.2775 74.0236 79.2729 74.0236 79.2676L75.2907 78.4651V78.4803L74.0236 79.2828Z" fill="#808386"/>
<path d="M72.3294 82.7657C71.8649 82.2032 71.4636 81.6545 71.1213 81.1218L74.0235 79.2828L75.2906 78.4802L83.0857 73.5394L84.9582 74.7862C81.5769 76.9286 76.5189 80.1287 72.3294 82.7657Z" fill="#868A8D"/>
<path d="M76.2579 77.8523L83.0746 73.5318C80.8022 74.9722 78.5304 76.4119 76.2579 77.8523ZM75.3372 71.657C76.1773 71.1242 77.0168 70.5915 77.8569 70.058L75.3372 71.657Z" fill="#DAE2E5"/>
<path d="M71.115 81.1111C69.7319 78.955 69.3063 77.0452 69.4368 75.3997C71.4038 74.1521 73.3701 72.9045 75.3371 71.6569L77.8567 70.058L83.0745 73.5317L76.2577 77.8523L75.2905 78.465L74.0234 79.2675L71.115 81.1111Z" fill="#BCC9CE"/>
<path d="M69.4369 75.3998C69.816 70.6312 74.8678 68.0674 74.8678 68.0674L77.8568 70.0581C77.0167 70.5916 76.1773 71.1243 75.3372 71.657C73.3702 72.9046 71.4039 74.1522 69.4369 75.3998Z" fill="#DDE6EA"/>
<path d="M77.5076 81.1164L81.3985 77.6091L83.4127 78.8537L77.5076 81.1164Z" fill="#BACAD1"/>
<path d="M90.6536 104.609V103.466L94.3938 101.096L94.7965 100.84V101.978L90.6536 104.609Z" fill="#1F1523"/>
<path d="M91.1153 61.8141C84.8082 61.8141 78.5017 63.3361 73.7005 66.3785C69.359 69.1297 66.9678 72.6805 66.9678 76.3753C66.9678 80.0701 69.359 83.6208 73.7012 86.3721C83.3043 92.4584 98.9291 92.4584 108.532 86.3728C112.874 83.6208 115.265 80.0708 115.265 76.376C115.265 72.6812 112.874 69.1305 108.531 66.3792C103.73 63.3361 97.4224 61.8141 91.1153 61.8141ZM91.1167 94.4872C84.2145 94.4872 77.3144 92.8227 72.0599 89.4922C66.6595 86.0703 63.6858 81.4114 63.6858 76.3753C63.6858 71.3391 66.6595 66.681 72.0599 63.2583C82.5669 56.5996 99.6637 56.5989 110.173 63.2591C115.573 66.681 118.547 71.3399 118.547 76.376C118.547 81.4121 115.573 86.0703 110.173 89.493C104.92 92.8219 98.0168 94.4872 91.1167 94.4872Z" fill="#586468"/>
<path d="M93.4329 80.8216L92.0234 80.0976L91.218 80.6097L90.6751 80.3056L93.0621 78.7928L93.587 79.1625L92.9302 79.5488L94.248 80.3049L93.4329 80.8216Z" fill="#6B757F"/>
<path d="M90.6751 80.3055V80.3048L93.0621 78.7927L90.6751 80.3055Z" fill="#555D65"/>
<path d="M71.4268 22.8459L70.8846 22.5418L73.2716 21.029L73.7958 21.3987L73.139 21.785L73.9812 22.269L73.1418 22.801L72.2322 22.3338L71.4268 22.8459Z" fill="#6B757F"/>
<path d="M29.2445 40.6971L28.1051 39.8619L29.1438 39.2034L30.3116 40.0204L29.5271 40.518L29.2445 40.6971Z" fill="#6B757F"/>
</svg>
