<svg width="47" height="48" viewBox="0 0 47 48" fill="none" xmlns="http://www.w3.org/2000/svg">
<rect width="47" height="48" rx="23.5" fill="#F9D1D1"/>
<path fill-rule="evenodd" clip-rule="evenodd" d="M18.0623 17.3809C16.6199 18.8225 15.809 20.7779 15.8081 22.8172C15.8081 25.9816 17.3915 28.4891 19.0884 30.1837C19.8386 30.9371 20.6793 31.5945 21.5912 32.141C21.9264 32.3419 22.2765 32.5167 22.6385 32.664C22.9308 32.78 23.2373 32.8699 23.5 32.8699C23.7627 32.8699 24.0692 32.78 24.3615 32.664C24.6715 32.5433 25.0277 32.3658 25.4088 32.141C26.3208 31.5945 27.1615 30.9371 27.9116 30.1837C29.6085 28.4891 31.1919 25.9816 31.1919 22.8172C31.1919 18.5725 27.7471 15.1301 23.5 15.1301C21.4607 15.1298 19.5048 15.9394 18.0623 17.3809ZM21.4081 20.7265C21.9629 20.1717 22.7154 19.86 23.5 19.86C24.2846 19.86 25.0371 20.1717 25.5919 20.7265C26.1467 21.2813 26.4584 22.0338 26.4584 22.8184C26.4584 23.603 26.1467 24.3555 25.5919 24.9103C25.0371 25.4651 24.2846 25.7768 23.5 25.7768C22.7154 25.7768 21.9629 25.4651 21.4081 24.9103C20.8533 24.3555 20.5416 23.603 20.5416 22.8184C20.5416 22.0338 20.8533 21.2813 21.4081 20.7265ZM22.2446 21.5583C21.9117 21.891 21.7247 22.3422 21.7247 22.8127C21.7247 23.2832 21.9117 23.7344 22.2446 24.0671C22.5774 24.3998 23.0289 24.5867 23.4997 24.5867C23.9705 24.5867 24.422 24.3998 24.7549 24.0671C25.0877 23.7344 25.2748 23.2832 25.2748 22.8127C25.2748 22.3422 25.0877 21.891 24.7549 21.5583C24.422 21.2256 23.9705 21.0387 23.4997 21.0387C23.0289 21.0387 22.5774 21.2256 22.2446 21.5583Z" fill="#606185"/>
</svg>
