<svg width="20" height="45" viewBox="0 0 20 45" fill="none" xmlns="http://www.w3.org/2000/svg">
<circle opacity="0.5" cx="10" cy="35" r="10" fill="#F2A3A3"/>
<circle cx="10" cy="35" r="7" fill="#F2A3A3"/>
<path fill-rule="evenodd" clip-rule="evenodd" d="M3.51991 2.64879C1.82248 4.34517 0.868295 6.64627 0.867188 9.04606C0.867188 12.7698 2.73043 15.7206 4.72736 17.7147C5.61014 18.6013 6.59944 19.375 7.67262 20.018C8.06707 20.2544 8.47909 20.4602 8.90504 20.6336C9.249 20.77 9.60967 20.8759 9.91882 20.8759C10.228 20.8759 10.5886 20.77 10.9326 20.6336C11.2975 20.4915 11.7166 20.2826 12.165 20.018C13.2382 19.375 14.2275 18.6013 15.1103 17.7147C17.1072 15.7206 18.9705 12.7698 18.9705 9.04606C18.9705 4.05095 14.9167 1.07378e-07 9.91882 1.07378e-07C7.51903 -0.000369296 5.21734 0.952399 3.51991 2.64879ZM7.4571 6.58574C8.10999 5.93285 8.9955 5.56606 9.91882 5.56606C10.8421 5.56606 11.7277 5.93285 12.3805 6.58574C13.0334 7.23863 13.4002 8.12413 13.4002 9.04746C13.4002 9.97078 13.0334 10.8563 12.3805 11.5092C11.7277 12.1621 10.8421 12.5289 9.91882 12.5289C8.9955 12.5289 8.10999 12.1621 7.4571 11.5092C6.80421 10.8563 6.43742 9.97078 6.43742 9.04746C6.43742 8.12413 6.80421 7.23863 7.4571 6.58574ZM8.44161 7.56462C8.04988 7.95612 7.8298 8.48711 7.8298 9.04077C7.8298 9.59443 8.04988 10.1254 8.44161 10.5169C8.83334 10.9084 9.36465 11.1284 9.91864 11.1284C10.4726 11.1284 11.0039 10.9084 11.3957 10.5169C11.7874 10.1254 12.0075 9.59443 12.0075 9.04077C12.0075 8.48711 11.7874 7.95612 11.3957 7.56462C11.0039 7.17312 10.4726 6.95318 9.91864 6.95318C9.36465 6.95318 8.83334 7.17312 8.44161 7.56462Z" fill="#6D3FFF"/>
<path d="M9.5 34.5C9.5 34.7761 9.72386 35 10 35C10.2761 35 10.5 34.7761 10.5 34.5H9.5ZM10.5 34.5V22H9.5V34.5H10.5Z" fill="#6D3FFF"/>
</svg>
